<?xml version="1.0" encoding="utf-8"?>
<!-- Generator: Adobe Illustrator 25.1.0, SVG Export Plug-In . SVG Version: 6.00 Build 0)  -->
<svg version="1.1" id="Layer_1" xmlns="http://www.w3.org/2000/svg" xmlns:xlink="http://www.w3.org/1999/xlink" x="0px" y="0px"
	 viewBox="0 0 294 327" style="enable-background:new 0 0 294 327;" xml:space="preserve">
<style type="text/css">
	.st0{fill:url(#SVGID_1_);}
	.st1{fill:url(#SVGID_2_);}
	.st2{opacity:0.28;fill:url(#SVGID_3_);}
	.st3{opacity:0.3;}
	.st4{enable-background:new    ;}
	.st5{fill:#498ECC;}
</style>
<radialGradient id="SVGID_1_" cx="133.2991" cy="95.4463" r="56.8101" gradientUnits="userSpaceOnUse">
	<stop  offset="0" style="stop-color:#2BAAE2"/>
	<stop  offset="0.7123" style="stop-color:#272361"/>
	<stop  offset="0.9721" style="stop-color:#D41C5C"/>
</radialGradient>
<circle class="st0" cx="148.31" cy="116.51" r="30.93"/>
<radialGradient id="SVGID_2_" cx="243.4549" cy="57.2654" r="44.7813" gradientUnits="userSpaceOnUse">
	<stop  offset="0.0363" style="stop-color:#FFFFFF"/>
	<stop  offset="0.1995" style="stop-color:#FBFAFD"/>
	<stop  offset="0.2979" style="stop-color:#F3F0F7"/>
	<stop  offset="0.3791" style="stop-color:#E7E1EF"/>
	<stop  offset="0.451" style="stop-color:#D7CDE5"/>
	<stop  offset="0.5167" style="stop-color:#C4B4D7"/>
	<stop  offset="0.5779" style="stop-color:#AF98C7"/>
	<stop  offset="0.6356" style="stop-color:#997BB6"/>
	<stop  offset="0.6906" style="stop-color:#825CA4"/>
	<stop  offset="0.7416" style="stop-color:#6C3A93"/>
	<stop  offset="0.7542" style="stop-color:#67308F"/>
	<stop  offset="1" style="stop-color:#55A4DB"/>
</radialGradient>
<circle class="st1" cx="249.6" cy="78.47" r="18.68"/>
<radialGradient id="SVGID_3_" cx="246.9515" cy="-64.3424" r="19.6104" gradientTransform="matrix(4.9613 -3.8589 2.7696 3.5608 -885.8142 1335.9982)" gradientUnits="userSpaceOnUse">
	<stop  offset="0" style="stop-color:#ED2079"/>
	<stop  offset="1" style="stop-color:#010101"/>
</radialGradient>
<path class="st2" d="M63.89,229.6c-30-38.57-10.75-103.71,42.98-145.5c53.73-41.79,121.61-44.41,151.61-5.84
	c30,38.57,10.75,103.71-42.98,145.5C161.76,265.55,93.89,268.17,63.89,229.6z"/>
<g>
	<g class="st3">
		<g class="st4">
			<g>
				<path class="st5" d="M53.19,130.41c-0.15,0.29-0.29,0.58-0.44,0.88c-0.14,0.29-0.28,0.58-0.42,0.88
					c-0.14,0.29-0.27,0.59-0.4,0.88c-0.13,0.29-0.26,0.59-0.38,0.88l-1.6-0.49c0.13-0.32,0.27-0.63,0.41-0.95
					c0.14-0.32,0.28-0.63,0.43-0.95c0.15-0.31,0.3-0.63,0.45-0.94c0.15-0.31,0.31-0.63,0.47-0.94c0.36-0.7,0.72-1.38,1.1-2.06
					c0.38-0.67,0.77-1.33,1.16-1.98c0.4-0.65,0.81-1.29,1.22-1.91c0.42-0.62,0.85-1.24,1.28-1.84l1.15,1.31
					c-0.41,0.56-0.8,1.12-1.19,1.7c-0.39,0.58-0.77,1.17-1.14,1.77c-0.37,0.6-0.73,1.22-1.08,1.84
					C53.86,129.13,53.52,129.76,53.19,130.41z"/>
			</g>
			<g>
				<path class="st5" d="M50.45,136.76c-0.35,0.99-0.67,1.97-0.96,2.96c-0.29,0.99-0.54,1.97-0.76,2.96
					c-0.22,0.99-0.41,1.97-0.56,2.94c-0.16,0.98-0.28,1.96-0.37,2.92l-1.94,0.64c0.1-1.04,0.24-2.09,0.41-3.15
					c0.17-1.05,0.38-2.11,0.62-3.17c0.24-1.06,0.52-2.12,0.83-3.19c0.31-1.06,0.66-2.12,1.04-3.19L50.45,136.76z"/>
			</g>
			<g>
				<path class="st5" d="M67.79,110.52l0.35,2.19c-0.78,0.55-1.55,1.13-2.3,1.75c-0.75,0.61-1.49,1.26-2.22,1.94
					c-0.72,0.68-1.43,1.38-2.12,2.12c-0.69,0.73-1.36,1.5-2.02,2.29l-1.01-1.5c0.71-0.86,1.43-1.68,2.17-2.48
					c0.74-0.8,1.51-1.56,2.28-2.3c0.78-0.74,1.58-1.44,2.39-2.11C66.13,111.76,66.95,111.12,67.79,110.52z"/>
			</g>
			<g>
				<path class="st5" d="M47.62,151.42c-0.02,0.97-0.01,1.93,0.04,2.88c0.05,0.95,0.13,1.89,0.25,2.82
					c0.12,0.93,0.27,1.84,0.47,2.73c0.19,0.9,0.42,1.78,0.69,2.63l-1.94,1.82c-0.28-0.93-0.52-1.89-0.73-2.87
					c-0.2-0.97-0.36-1.96-0.48-2.97c-0.12-1-0.2-2.02-0.25-3.05c-0.04-1.03-0.05-2.06-0.02-3.12L47.62,151.42z"/>
			</g>
			<g>
				<path class="st5" d="M81.25,104.52l-0.67,2.77c-0.86,0.15-1.72,0.34-2.58,0.59c-0.85,0.24-1.7,0.53-2.55,0.85
					c-0.84,0.33-1.67,0.69-2.5,1.1c-0.82,0.41-1.64,0.85-2.45,1.33l-0.17-2.33c0.87-0.53,1.75-1.02,2.64-1.47
					c0.9-0.45,1.8-0.86,2.71-1.22c0.92-0.37,1.84-0.69,2.76-0.96C79.38,104.92,80.32,104.7,81.25,104.52z"/>
			</g>
			<g>
				<path class="st5" d="M55.89,173.07c0,0,0.01,0.01,0.01,0.01s0.01,0.01,0.01,0.01c0,0,0.01,0.01,0.01,0.01
					c0,0,0.01,0.01,0.01,0.01l-1.48,2.9c0,0-0.01-0.01-0.01-0.01c0,0-0.01-0.01-0.01-0.01c0,0-0.01-0.01-0.01-0.01
					c0,0-0.01-0.01-0.01-0.01c-0.71-0.61-1.37-1.26-1.99-1.95c-0.61-0.68-1.18-1.41-1.71-2.16c-0.52-0.75-1-1.54-1.44-2.35
					c-0.44-0.81-0.83-1.65-1.19-2.51l1.89-2.05c0.34,0.79,0.71,1.55,1.12,2.29c0.41,0.74,0.86,1.45,1.35,2.13
					c0.49,0.69,1.03,1.34,1.6,1.96C54.61,171.94,55.23,172.52,55.89,173.07z"/>
			</g>
			<g>
				<path class="st5" d="M83.99,104.17c0.57-0.04,1.14-0.06,1.7-0.06c0.57,0,1.14,0.02,1.71,0.06c0.57,0.04,1.14,0.11,1.7,0.2
					c0.57,0.09,1.14,0.2,1.7,0.34c0.34,0.08,0.67,0.17,0.99,0.27c0.33,0.1,0.65,0.2,0.97,0.32c0.32,0.11,0.64,0.23,0.95,0.36
					c0.31,0.13,0.62,0.27,0.93,0.41l-1.83,2.85c-0.28-0.14-0.56-0.27-0.84-0.39c-0.28-0.12-0.57-0.24-0.86-0.35
					c-0.29-0.11-0.59-0.21-0.88-0.31c-0.3-0.09-0.6-0.18-0.9-0.26c-0.51-0.13-1.03-0.25-1.55-0.34c-0.52-0.09-1.04-0.16-1.56-0.21
					c-0.52-0.05-1.04-0.07-1.56-0.08c-0.52-0.01-1.04,0-1.56,0.04L83.99,104.17z"/>
			</g>
			<g>
				<path class="st5" d="M57.93,174.52c0.73,0.45,1.49,0.84,2.27,1.18c0.79,0.34,1.6,0.62,2.43,0.84c0.84,0.22,1.7,0.39,2.57,0.5
					c0.88,0.11,1.78,0.16,2.7,0.15l-0.45,3.53c-1,0-1.98-0.07-2.95-0.21c-0.95-0.13-1.89-0.33-2.8-0.6
					c-0.9-0.26-1.78-0.59-2.64-0.97c-0.85-0.38-1.67-0.83-2.46-1.34L57.93,174.52z"/>
			</g>
			<g>
				<path class="st5" d="M101.83,118.63c-0.41-0.9-0.87-1.76-1.36-2.57c-0.49-0.81-1.03-1.57-1.61-2.28
					c-0.57-0.7-1.19-1.36-1.84-1.97c-0.65-0.6-1.33-1.15-2.05-1.64l2.06-2.78c0.8,0.53,1.56,1.11,2.27,1.76
					c0.73,0.65,1.41,1.35,2.05,2.11c0.65,0.77,1.25,1.59,1.8,2.46c0.56,0.88,1.07,1.81,1.54,2.79L101.83,118.63z"/>
			</g>
			<g>
				<path class="st5" d="M70.72,176.97c0.98-0.14,1.97-0.34,2.96-0.6c1-0.27,2.01-0.6,3.02-1c1.02-0.4,2.03-0.86,3.05-1.39
					c1.02-0.53,2.04-1.12,3.04-1.78l1.04,3.26c-1.11,0.71-2.23,1.35-3.36,1.92c-1.12,0.57-2.24,1.06-3.36,1.48
					c-1.11,0.42-2.22,0.77-3.32,1.05c-1.09,0.27-2.18,0.48-3.25,0.61L70.72,176.97z"/>
			</g>
			<g>
				<path class="st5" d="M104.29,135.37c0.11-1.28,0.16-2.53,0.16-3.77c-0.01-1.23-0.07-2.42-0.19-3.59
					c-0.12-1.16-0.29-2.29-0.51-3.38c-0.22-1.09-0.5-2.14-0.82-3.15l3.01-1.87c0.37,1.1,0.69,2.25,0.94,3.44
					c0.26,1.2,0.46,2.44,0.6,3.71c0.14,1.28,0.22,2.6,0.24,3.95c0.02,1.36-0.03,2.74-0.14,4.15L104.29,135.37z"/>
			</g>
			<g>
				<path class="st5" d="M87.09,173.16l-1.35-3.08c0.97-0.76,1.92-1.59,2.85-2.47c0.94-0.88,1.85-1.82,2.74-2.81
					c0.89-1,1.76-2.05,2.59-3.15c0.83-1.1,1.64-2.26,2.4-3.46l2.51,1.88c-0.85,1.33-1.74,2.6-2.66,3.82
					c-0.92,1.21-1.88,2.37-2.87,3.47c-0.99,1.09-2,2.12-3.04,3.09C89.21,171.43,88.16,172.33,87.09,173.16z"/>
			</g>
			<g>
				<path class="st5" d="M98.87,153.74c0.62-1.21,1.18-2.43,1.7-3.65c0.51-1.22,0.98-2.44,1.39-3.67c0.41-1.22,0.77-2.44,1.08-3.65
					c0.31-1.21,0.56-2.41,0.77-3.6l3.26-0.12c-0.22,1.32-0.5,2.65-0.84,3.99c-0.34,1.34-0.73,2.69-1.18,4.04
					c-0.45,1.35-0.96,2.71-1.52,4.06c-0.57,1.35-1.19,2.7-1.87,4.03c-0.04,0.08-0.09,0.17-0.13,0.25c-0.04,0.08-0.09,0.17-0.13,0.25
					c-0.04,0.08-0.09,0.17-0.13,0.25c-0.04,0.08-0.09,0.17-0.13,0.25l-2.73-1.51c0.04-0.08,0.08-0.15,0.12-0.23s0.08-0.15,0.12-0.23
					c0.04-0.08,0.08-0.15,0.12-0.23C98.79,153.89,98.83,153.82,98.87,153.74z"/>
			</g>
		</g>
	</g>
	<g class="st3">
		<g class="st4">
			<g>
				<path class="st5" d="M63.02,135.52c0.03-0.05,0.05-0.11,0.08-0.16c0.03-0.05,0.05-0.11,0.08-0.16c0.03-0.05,0.05-0.11,0.08-0.16
					c0.03-0.05,0.05-0.11,0.08-0.16c0.02-0.05,0.05-0.09,0.07-0.14c0.02-0.05,0.05-0.09,0.07-0.14c0.02-0.05,0.05-0.09,0.07-0.14
					c0.02-0.05,0.05-0.09,0.07-0.14l0.55,0.3c-0.02,0.05-0.05,0.09-0.07,0.14c-0.02,0.05-0.05,0.09-0.07,0.14
					c-0.02,0.05-0.05,0.09-0.07,0.14c-0.02,0.05-0.05,0.09-0.07,0.14c-0.03,0.05-0.05,0.1-0.08,0.16c-0.03,0.05-0.05,0.1-0.08,0.16
					c-0.03,0.05-0.05,0.1-0.08,0.15s-0.05,0.1-0.08,0.16L63.02,135.52z"/>
			</g>
			<g>
				<path class="st5" d="M64.84,133.38l-0.53-0.34c0.05-0.1,0.11-0.2,0.16-0.3c0.06-0.1,0.11-0.2,0.17-0.3
					c0.06-0.1,0.11-0.2,0.17-0.29c0.06-0.1,0.11-0.2,0.17-0.29l0.51,0.37c-0.05,0.09-0.11,0.19-0.16,0.28
					c-0.05,0.09-0.11,0.19-0.16,0.29c-0.05,0.1-0.11,0.19-0.16,0.29C64.95,133.19,64.9,133.28,64.84,133.38z"/>
			</g>
			<g>
				<path class="st5" d="M61.83,138.05c0.05-0.1,0.09-0.21,0.14-0.31c0.05-0.1,0.09-0.2,0.14-0.31c0.05-0.1,0.09-0.2,0.14-0.31
					c0.05-0.1,0.1-0.2,0.14-0.31l0.59,0.23c-0.05,0.1-0.09,0.2-0.14,0.3c-0.05,0.1-0.09,0.2-0.14,0.3c-0.05,0.1-0.09,0.2-0.14,0.3
					c-0.04,0.1-0.09,0.2-0.13,0.3L61.83,138.05z"/>
			</g>
			<g>
				<path class="st5" d="M65.71,130.63c0.06-0.1,0.12-0.19,0.18-0.29c0.06-0.1,0.12-0.19,0.18-0.29c0.06-0.1,0.12-0.19,0.18-0.29
					c0.06-0.1,0.12-0.19,0.18-0.28l0.47,0.44c-0.06,0.09-0.12,0.18-0.18,0.28c-0.06,0.09-0.12,0.18-0.17,0.28
					c-0.06,0.09-0.12,0.19-0.17,0.28c-0.06,0.09-0.12,0.19-0.17,0.28L65.71,130.63z"/>
			</g>
			<g>
				<path class="st5" d="M61.87,139.53c-0.04,0.1-0.08,0.2-0.13,0.3c-0.04,0.1-0.08,0.2-0.12,0.3c-0.04,0.1-0.08,0.2-0.12,0.3
					c-0.04,0.1-0.08,0.2-0.12,0.31l-0.64-0.13c0.04-0.1,0.08-0.21,0.12-0.31S60.96,140.1,61,140c0.04-0.1,0.08-0.21,0.13-0.31
					c0.04-0.1,0.09-0.21,0.13-0.31L61.87,139.53z"/>
			</g>
			<g>
				<path class="st5" d="M67.22,128.27c0.06-0.09,0.13-0.19,0.19-0.28c0.06-0.09,0.13-0.19,0.19-0.28c0.06-0.09,0.13-0.19,0.19-0.28
					c0.06-0.09,0.13-0.18,0.19-0.28l0.43,0.51c-0.06,0.09-0.13,0.18-0.19,0.27c-0.06,0.09-0.13,0.18-0.19,0.27
					c-0.06,0.09-0.12,0.18-0.19,0.27c-0.06,0.09-0.12,0.18-0.18,0.27L67.22,128.27z"/>
			</g>
			<g>
				<path class="st5" d="M60.89,142.06c-0.04,0.1-0.08,0.21-0.11,0.31c-0.04,0.1-0.07,0.21-0.11,0.31c-0.04,0.1-0.07,0.21-0.11,0.31
					c-0.04,0.1-0.07,0.21-0.11,0.31l-0.67-0.05c0.04-0.11,0.07-0.21,0.11-0.32c0.04-0.11,0.07-0.21,0.11-0.32
					c0.04-0.11,0.08-0.21,0.11-0.32c0.04-0.11,0.08-0.21,0.12-0.32L60.89,142.06z"/>
			</g>
			<g>
				<path class="st5" d="M68.83,125.99c0.07-0.09,0.14-0.18,0.2-0.27c0.07-0.09,0.14-0.18,0.2-0.27c0.07-0.09,0.14-0.18,0.21-0.27
					c0.07-0.09,0.14-0.18,0.21-0.27l0.39,0.58c-0.07,0.09-0.13,0.17-0.2,0.26c-0.07,0.09-0.13,0.17-0.2,0.26
					c-0.07,0.09-0.13,0.18-0.2,0.26c-0.07,0.09-0.13,0.18-0.2,0.26L68.83,125.99z"/>
			</g>
			<g>
				<path class="st5" d="M60.01,144.63c-0.03,0.1-0.07,0.21-0.1,0.31c-0.03,0.1-0.06,0.21-0.1,0.31c-0.03,0.1-0.06,0.21-0.09,0.31
					c-0.03,0.1-0.06,0.21-0.09,0.31l-0.7,0.03c0.03-0.11,0.06-0.22,0.1-0.32c0.03-0.11,0.06-0.22,0.1-0.32s0.07-0.22,0.1-0.32
					c0.03-0.11,0.07-0.22,0.1-0.32L60.01,144.63z"/>
			</g>
			<g>
				<path class="st5" d="M70.56,123.77c0.07-0.09,0.14-0.18,0.22-0.26c0.07-0.09,0.14-0.17,0.22-0.26c0.07-0.09,0.15-0.17,0.22-0.26
					c0.07-0.09,0.15-0.17,0.22-0.26l0.34,0.65c-0.07,0.08-0.14,0.17-0.21,0.25c-0.07,0.08-0.14,0.17-0.21,0.25
					c-0.07,0.08-0.14,0.17-0.21,0.25c-0.07,0.08-0.14,0.17-0.21,0.25L70.56,123.77z"/>
			</g>
			<g>
				<path class="st5" d="M59.26,147.24c-0.03,0.11-0.06,0.21-0.08,0.32c-0.03,0.11-0.05,0.21-0.08,0.32
					c-0.03,0.11-0.05,0.21-0.08,0.32c-0.03,0.11-0.05,0.21-0.08,0.32l-0.72,0.11c0.03-0.11,0.05-0.22,0.08-0.33
					c0.03-0.11,0.05-0.22,0.08-0.33c0.03-0.11,0.06-0.22,0.08-0.33c0.03-0.11,0.06-0.22,0.09-0.33L59.26,147.24z"/>
			</g>
			<g>
				<path class="st5" d="M72.38,121.63c0.08-0.08,0.15-0.17,0.23-0.25c0.08-0.08,0.15-0.17,0.23-0.25c0.08-0.08,0.15-0.17,0.23-0.25
					c0.08-0.08,0.15-0.17,0.23-0.25l0.29,0.72c-0.08,0.08-0.15,0.16-0.23,0.24c-0.07,0.08-0.15,0.16-0.22,0.24
					c-0.07,0.08-0.15,0.16-0.22,0.24c-0.07,0.08-0.15,0.16-0.22,0.24L72.38,121.63z"/>
			</g>
			<g>
				<path class="st5" d="M58.63,149.88c-0.02,0.11-0.05,0.21-0.07,0.32c-0.02,0.11-0.04,0.21-0.07,0.32
					c-0.02,0.11-0.04,0.21-0.06,0.32c-0.02,0.11-0.04,0.21-0.06,0.32l-0.75,0.19c0.02-0.11,0.04-0.22,0.07-0.33
					c0.02-0.11,0.04-0.22,0.07-0.33c0.02-0.11,0.05-0.22,0.07-0.33c0.02-0.11,0.05-0.22,0.07-0.33L58.63,149.88z"/>
			</g>
			<g>
				<path class="st5" d="M74.3,119.59c0.08-0.08,0.16-0.16,0.24-0.24c0.08-0.08,0.16-0.16,0.24-0.24c0.08-0.08,0.16-0.16,0.24-0.24
					c0.08-0.08,0.16-0.16,0.24-0.24l0.23,0.78c-0.08,0.08-0.16,0.15-0.24,0.23c-0.08,0.08-0.16,0.15-0.24,0.23
					c-0.08,0.08-0.16,0.15-0.23,0.23c-0.08,0.08-0.16,0.16-0.23,0.23L74.3,119.59z"/>
			</g>
			<g>
				<path class="st5" d="M58.13,152.54c-0.02,0.11-0.03,0.22-0.05,0.32c-0.02,0.11-0.03,0.22-0.05,0.32
					c-0.02,0.11-0.03,0.22-0.05,0.32c-0.02,0.11-0.03,0.22-0.05,0.33l-0.77,0.27c0.02-0.11,0.03-0.22,0.05-0.34
					c0.02-0.11,0.03-0.22,0.05-0.34c0.02-0.11,0.03-0.22,0.05-0.34c0.02-0.11,0.04-0.22,0.05-0.33L58.13,152.54z"/>
			</g>
			<g>
				<path class="st5" d="M76.32,117.63c0.08-0.08,0.17-0.15,0.25-0.23c0.08-0.08,0.17-0.15,0.25-0.23c0.08-0.08,0.17-0.15,0.25-0.23
					c0.08-0.08,0.17-0.15,0.26-0.22l0.17,0.85c-0.08,0.07-0.17,0.14-0.25,0.22c-0.08,0.07-0.16,0.14-0.25,0.22
					c-0.08,0.07-0.16,0.15-0.25,0.22c-0.08,0.07-0.16,0.15-0.24,0.22L76.32,117.63z"/>
			</g>
			<g>
				<path class="st5" d="M57.76,155.24c-0.01,0.11-0.02,0.22-0.04,0.33c-0.01,0.11-0.02,0.22-0.03,0.33
					c-0.01,0.11-0.02,0.22-0.03,0.33c-0.01,0.11-0.02,0.22-0.03,0.33l-0.79,0.36c0.01-0.11,0.02-0.23,0.03-0.34
					c0.01-0.11,0.02-0.23,0.03-0.34c0.01-0.11,0.02-0.23,0.04-0.34c0.01-0.11,0.03-0.23,0.04-0.34L57.76,155.24z"/>
			</g>
			<g>
				<path class="st5" d="M78.44,115.79c0.09-0.07,0.18-0.14,0.26-0.22c0.09-0.07,0.18-0.14,0.26-0.21c0.09-0.07,0.18-0.14,0.27-0.21
					c0.09-0.07,0.18-0.14,0.27-0.21l0.11,0.92c-0.09,0.07-0.17,0.13-0.26,0.2c-0.09,0.07-0.17,0.14-0.26,0.2
					c-0.09,0.07-0.17,0.14-0.26,0.21c-0.09,0.07-0.17,0.14-0.26,0.21L78.44,115.79z"/>
			</g>
			<g>
				<path class="st5" d="M57.52,157.95c-0.01,0.11-0.01,0.22-0.02,0.33c-0.01,0.11-0.01,0.22-0.02,0.33c0,0.11-0.01,0.22-0.01,0.33
					c0,0.11-0.01,0.22-0.01,0.33l-0.81,0.45c0-0.11,0.01-0.23,0.01-0.34c0.01-0.11,0.01-0.23,0.02-0.34
					c0.01-0.11,0.01-0.23,0.02-0.34c0.01-0.11,0.01-0.23,0.02-0.34L57.52,157.95z"/>
			</g>
			<g>
				<path class="st5" d="M81.77,113.26l0.04,0.99c-0.09,0.06-0.18,0.12-0.27,0.19c-0.09,0.06-0.18,0.13-0.27,0.19
					c-0.09,0.06-0.18,0.13-0.27,0.19c-0.09,0.06-0.18,0.13-0.27,0.19l-0.07-0.96c0.09-0.07,0.18-0.13,0.28-0.2
					c0.09-0.07,0.18-0.13,0.28-0.2c0.09-0.07,0.18-0.13,0.28-0.2C81.58,113.39,81.68,113.32,81.77,113.26z"/>
			</g>
			<g>
				<path class="st5" d="M57.44,160.67c0,0.11,0,0.22,0,0.33c0,0.11,0,0.22,0,0.33c0,0.11,0,0.22,0,0.33c0,0.11,0,0.22,0.01,0.33
					l-0.83,0.55c0-0.11,0-0.23,0-0.34c0-0.11,0-0.23,0-0.34c0-0.11,0-0.23,0-0.34c0-0.11,0-0.23,0-0.34L57.44,160.67z"/>
			</g>
			<g>
				<path class="st5" d="M84.09,112.77c-0.09,0.06-0.19,0.11-0.28,0.17c-0.09,0.06-0.19,0.12-0.28,0.17
					c-0.09,0.06-0.19,0.12-0.28,0.18c-0.09,0.06-0.18,0.12-0.28,0.18l0-1.02c0.1-0.06,0.19-0.12,0.29-0.19
					c0.1-0.06,0.19-0.12,0.29-0.18c0.1-0.06,0.19-0.12,0.29-0.18c0.1-0.06,0.19-0.12,0.29-0.18L84.09,112.77z"/>
			</g>
			<g>
				<path class="st5" d="M57.6,164.71l-0.84,0.65c-0.01-0.11-0.02-0.23-0.03-0.34c-0.01-0.11-0.02-0.23-0.02-0.34
					c-0.01-0.11-0.01-0.23-0.02-0.34c-0.01-0.11-0.01-0.23-0.02-0.34l0.83-0.6c0.01,0.11,0.01,0.22,0.02,0.33
					c0.01,0.11,0.01,0.22,0.02,0.33c0.01,0.11,0.02,0.22,0.02,0.33C57.58,164.49,57.59,164.6,57.6,164.71z"/>
			</g>
			<g>
				<path class="st5" d="M86.47,111.43c-0.1,0.05-0.19,0.1-0.29,0.15c-0.1,0.05-0.19,0.1-0.29,0.16c-0.1,0.05-0.19,0.1-0.29,0.16
					c-0.1,0.05-0.19,0.11-0.29,0.16l0.07-1.09c0.1-0.06,0.2-0.11,0.3-0.17c0.1-0.06,0.2-0.11,0.3-0.17c0.1-0.06,0.2-0.11,0.3-0.16
					c0.1-0.05,0.2-0.11,0.3-0.16L86.47,111.43z"/>
			</g>
			<g>
				<path class="st5" d="M57.74,166.11c0.01,0.11,0.03,0.22,0.04,0.33c0.01,0.11,0.03,0.22,0.04,0.33c0.01,0.11,0.03,0.22,0.04,0.33
					c0.02,0.11,0.03,0.22,0.05,0.33l-0.84,0.75c-0.02-0.11-0.03-0.23-0.05-0.34c-0.02-0.11-0.03-0.23-0.04-0.34
					c-0.01-0.11-0.03-0.23-0.04-0.34c-0.01-0.11-0.03-0.23-0.04-0.34L57.74,166.11z"/>
			</g>
			<g>
				<path class="st5" d="M88.92,110.26c-0.1,0.04-0.2,0.09-0.3,0.13c-0.1,0.04-0.2,0.09-0.3,0.14c-0.1,0.05-0.2,0.09-0.3,0.14
					c-0.1,0.05-0.2,0.09-0.3,0.14l0.16-1.16c0.1-0.05,0.21-0.1,0.31-0.15c0.1-0.05,0.21-0.1,0.31-0.15c0.1-0.05,0.21-0.1,0.31-0.14
					c0.1-0.05,0.21-0.09,0.31-0.14L88.92,110.26z"/>
			</g>
			<g>
				<path class="st5" d="M58.14,168.8c0.02,0.11,0.04,0.22,0.06,0.32c0.02,0.11,0.04,0.22,0.06,0.32c0.02,0.11,0.04,0.22,0.07,0.32
					c0.02,0.11,0.05,0.22,0.07,0.32l-0.85,0.86c-0.02-0.11-0.05-0.22-0.07-0.34c-0.02-0.11-0.04-0.22-0.07-0.34
					c-0.02-0.11-0.04-0.22-0.06-0.34c-0.02-0.11-0.04-0.22-0.06-0.34L58.14,168.8z"/>
			</g>
			<g>
				<path class="st5" d="M91.44,109.26c-0.1,0.04-0.21,0.07-0.31,0.11c-0.1,0.04-0.21,0.08-0.31,0.11c-0.1,0.04-0.21,0.08-0.31,0.12
					c-0.1,0.04-0.2,0.08-0.31,0.12l0.25-1.23c0.11-0.04,0.21-0.09,0.32-0.13c0.11-0.04,0.21-0.08,0.32-0.12
					c0.11-0.04,0.21-0.08,0.32-0.12c0.11-0.04,0.21-0.08,0.32-0.12L91.44,109.26z"/>
			</g>
			<g>
				<path class="st5" d="M58.73,171.47c0.03,0.11,0.06,0.21,0.08,0.32c0.03,0.11,0.06,0.21,0.09,0.32c0.03,0.11,0.06,0.21,0.09,0.32
					c0.03,0.11,0.06,0.21,0.09,0.32l-0.85,0.98c-0.03-0.11-0.06-0.22-0.09-0.33c-0.03-0.11-0.06-0.22-0.09-0.33
					c-0.03-0.11-0.06-0.22-0.09-0.33c-0.03-0.11-0.06-0.22-0.08-0.33L58.73,171.47z"/>
			</g>
			<g>
				<path class="st5" d="M94.05,108.45c-0.11,0.03-0.21,0.06-0.32,0.09c-0.11,0.03-0.21,0.06-0.32,0.09
					c-0.11,0.03-0.21,0.06-0.32,0.09c-0.1,0.03-0.21,0.06-0.31,0.1l0.35-1.29c0.11-0.03,0.22-0.07,0.33-0.1
					c0.11-0.03,0.22-0.07,0.33-0.1c0.11-0.03,0.22-0.07,0.33-0.1c0.11-0.03,0.22-0.06,0.33-0.09L94.05,108.45z"/>
			</g>
			<g>
				<path class="st5" d="M59.51,174.08c0.04,0.1,0.07,0.21,0.11,0.31c0.04,0.1,0.07,0.21,0.11,0.31c0.04,0.1,0.08,0.21,0.11,0.31
					c0.04,0.1,0.08,0.21,0.12,0.31l-0.84,1.1c-0.04-0.11-0.08-0.22-0.12-0.32c-0.04-0.11-0.08-0.22-0.12-0.32
					c-0.04-0.11-0.08-0.22-0.11-0.32c-0.04-0.11-0.07-0.22-0.11-0.33L59.51,174.08z"/>
			</g>
			<g>
				<path class="st5" d="M96.71,107.86c-0.11,0.02-0.22,0.04-0.33,0.06c-0.11,0.02-0.22,0.04-0.32,0.06
					c-0.11,0.02-0.22,0.04-0.32,0.07c-0.11,0.02-0.21,0.05-0.32,0.07l0.45-1.35c0.11-0.03,0.22-0.05,0.34-0.08
					c0.11-0.02,0.22-0.05,0.34-0.07c0.11-0.02,0.23-0.05,0.34-0.07c0.11-0.02,0.23-0.05,0.34-0.07L96.71,107.86z"/>
			</g>
			<g>
				<path class="st5" d="M60.49,176.62c0.04,0.1,0.09,0.2,0.13,0.3c0.04,0.1,0.09,0.2,0.14,0.3c0.05,0.1,0.09,0.2,0.14,0.3
					c0.05,0.1,0.09,0.2,0.14,0.3l-0.82,1.22c-0.05-0.1-0.1-0.21-0.15-0.31c-0.05-0.1-0.1-0.21-0.14-0.31
					c-0.05-0.1-0.09-0.21-0.14-0.32c-0.05-0.11-0.09-0.21-0.14-0.32L60.49,176.62z"/>
			</g>
			<g>
				<path class="st5" d="M99.42,107.5c-0.11,0.01-0.22,0.02-0.33,0.03c-0.11,0.01-0.22,0.02-0.33,0.03
					c-0.11,0.01-0.22,0.02-0.33,0.04c-0.11,0.01-0.22,0.03-0.33,0.04l0.57-1.41c0.11-0.02,0.23-0.03,0.34-0.05
					c0.11-0.02,0.23-0.03,0.34-0.04c0.11-0.01,0.23-0.03,0.34-0.04c0.12-0.01,0.23-0.02,0.35-0.04L99.42,107.5z"/>
			</g>
			<g>
				<path class="st5" d="M61.69,179.08c0.05,0.1,0.11,0.19,0.16,0.29c0.05,0.1,0.11,0.19,0.16,0.29c0.06,0.1,0.11,0.19,0.17,0.29
					c0.06,0.1,0.11,0.19,0.17,0.29l-0.79,1.35c-0.06-0.1-0.12-0.2-0.17-0.3c-0.06-0.1-0.11-0.2-0.17-0.3
					c-0.06-0.1-0.11-0.2-0.17-0.3c-0.05-0.1-0.11-0.2-0.16-0.3L61.69,179.08z"/>
			</g>
			<g>
				<path class="st5" d="M102.16,107.4c-0.11,0-0.22,0-0.33,0c-0.11,0-0.22,0-0.33,0c-0.11,0-0.22,0-0.33,0.01
					c-0.11,0-0.22,0.01-0.33,0.01l0.69-1.46c0.12-0.01,0.23-0.01,0.35-0.02c0.12,0,0.23-0.01,0.35-0.01c0.12,0,0.23-0.01,0.35-0.01
					c0.12,0,0.23,0,0.35,0L102.16,107.4z"/>
			</g>
			<g>
				<path class="st5" d="M63.88,182.5c0,0,0.01,0.01,0.01,0.01c0,0,0.01,0.01,0.01,0.01c0,0,0.01,0.01,0.01,0.01
					c0,0,0.01,0.01,0.01,0.01l-0.76,1.48c0,0-0.01-0.01-0.01-0.01s-0.01-0.01-0.01-0.01c0,0-0.01-0.01-0.01-0.01
					c0,0-0.01-0.01-0.01-0.01c-0.07-0.09-0.14-0.19-0.2-0.29c-0.07-0.1-0.13-0.19-0.2-0.29c-0.07-0.1-0.13-0.19-0.2-0.29
					c-0.06-0.1-0.13-0.19-0.19-0.29l0.77-1.42c0.06,0.09,0.12,0.18,0.19,0.27c0.06,0.09,0.13,0.18,0.19,0.27
					c0.06,0.09,0.13,0.18,0.19,0.27C63.75,182.33,63.82,182.42,63.88,182.5z"/>
			</g>
			<g>
				<path class="st5" d="M104.93,107.57c-0.11-0.01-0.22-0.02-0.33-0.04c-0.11-0.01-0.22-0.02-0.33-0.03
					c-0.11-0.01-0.22-0.02-0.34-0.03c-0.11-0.01-0.22-0.02-0.34-0.02l0.82-1.5c0.12,0.01,0.23,0.01,0.35,0.02
					c0.12,0.01,0.23,0.01,0.35,0.02c0.12,0.01,0.23,0.02,0.35,0.03c0.12,0.01,0.23,0.02,0.35,0.03L104.93,107.57z"/>
			</g>
			<g>
				<path class="st5" d="M65.69,184.69l-0.71,1.61c-0.08-0.09-0.16-0.18-0.23-0.26c-0.08-0.09-0.15-0.18-0.23-0.27
					c-0.08-0.09-0.15-0.18-0.23-0.27c-0.07-0.09-0.15-0.18-0.22-0.27l0.73-1.55c0.07,0.09,0.14,0.17,0.22,0.26
					c0.07,0.09,0.15,0.17,0.22,0.25c0.07,0.08,0.15,0.17,0.22,0.25C65.54,184.52,65.62,184.6,65.69,184.69z"/>
			</g>
			<g>
				<path class="st5" d="M107.69,108.05c-0.11-0.03-0.22-0.05-0.33-0.07c-0.11-0.02-0.22-0.05-0.33-0.07
					c-0.11-0.02-0.22-0.04-0.33-0.06c-0.11-0.02-0.22-0.04-0.33-0.06l0.96-1.53c0.12,0.02,0.24,0.04,0.35,0.06
					c0.12,0.02,0.23,0.04,0.35,0.06c0.12,0.02,0.23,0.04,0.35,0.07c0.12,0.02,0.23,0.05,0.35,0.07L107.69,108.05z"/>
			</g>
			<g>
				<path class="st5" d="M66.7,185.72c0.08,0.08,0.16,0.16,0.25,0.23c0.08,0.08,0.17,0.16,0.25,0.23c0.08,0.08,0.17,0.15,0.25,0.23
					c0.09,0.08,0.17,0.15,0.26,0.23l-0.65,1.75c-0.09-0.08-0.18-0.16-0.26-0.24c-0.09-0.08-0.17-0.16-0.26-0.24
					c-0.09-0.08-0.17-0.16-0.26-0.25c-0.09-0.08-0.17-0.17-0.25-0.25L66.7,185.72z"/>
			</g>
			<g>
				<path class="st5" d="M110.43,108.85c-0.11-0.04-0.22-0.08-0.33-0.12c-0.11-0.04-0.22-0.07-0.33-0.11
					c-0.11-0.04-0.22-0.07-0.33-0.11c-0.11-0.03-0.22-0.07-0.33-0.1l1.11-1.56c0.12,0.03,0.23,0.07,0.35,0.1
					c0.12,0.03,0.23,0.07,0.35,0.1c0.12,0.04,0.23,0.07,0.35,0.11c0.12,0.04,0.23,0.08,0.35,0.11L110.43,108.85z"/>
			</g>
			<g>
				<path class="st5" d="M68.85,187.56c0.09,0.07,0.18,0.14,0.28,0.21c0.09,0.07,0.19,0.14,0.28,0.2c0.09,0.07,0.19,0.13,0.28,0.2
					c0.1,0.07,0.19,0.13,0.29,0.2l-0.57,1.88c-0.1-0.07-0.2-0.14-0.3-0.21c-0.1-0.07-0.2-0.14-0.29-0.22
					c-0.1-0.07-0.19-0.15-0.29-0.22c-0.1-0.07-0.19-0.15-0.29-0.22L68.85,187.56z"/>
			</g>
			<g>
				<path class="st5" d="M113.11,110.01c-0.11-0.05-0.21-0.11-0.32-0.16c-0.11-0.05-0.21-0.1-0.32-0.15
					c-0.11-0.05-0.22-0.1-0.32-0.15c-0.11-0.05-0.22-0.1-0.32-0.14l1.26-1.56c0.12,0.05,0.23,0.1,0.34,0.14
					c0.11,0.05,0.23,0.1,0.34,0.15c0.11,0.05,0.23,0.1,0.34,0.16c0.11,0.05,0.23,0.11,0.34,0.16L113.11,110.01z"/>
			</g>
			<g>
				<path class="st5" d="M71.25,189.17c0.1,0.06,0.2,0.12,0.31,0.18c0.1,0.06,0.21,0.12,0.31,0.17c0.1,0.06,0.21,0.11,0.31,0.17
					c0.11,0.06,0.21,0.11,0.32,0.16l-0.47,2.01c-0.11-0.06-0.22-0.12-0.33-0.18c-0.11-0.06-0.22-0.12-0.33-0.18
					c-0.11-0.06-0.22-0.12-0.32-0.19c-0.11-0.06-0.21-0.13-0.32-0.19L71.25,189.17z"/>
			</g>
			<g>
				<path class="st5" d="M115.71,111.55c-0.1-0.07-0.2-0.14-0.31-0.21c-0.1-0.07-0.21-0.13-0.31-0.2c-0.1-0.07-0.21-0.13-0.31-0.2
					c-0.1-0.06-0.21-0.13-0.31-0.19l1.42-1.55c0.11,0.06,0.22,0.13,0.33,0.19c0.11,0.07,0.22,0.13,0.33,0.2
					c0.11,0.07,0.22,0.14,0.33,0.2c0.11,0.07,0.22,0.14,0.33,0.21L115.71,111.55z"/>
			</g>
			<g>
				<path class="st5" d="M73.9,190.5c0.11,0.05,0.22,0.09,0.34,0.14c0.11,0.05,0.23,0.09,0.34,0.14c0.11,0.04,0.23,0.09,0.34,0.13
					c0.12,0.04,0.23,0.08,0.35,0.13l-0.36,2.13c-0.12-0.05-0.24-0.09-0.36-0.14c-0.12-0.05-0.24-0.1-0.36-0.14
					c-0.12-0.05-0.24-0.1-0.35-0.15c-0.12-0.05-0.23-0.1-0.35-0.16L73.9,190.5z"/>
			</g>
			<g>
				<path class="st5" d="M118.17,113.48c-0.1-0.09-0.19-0.17-0.29-0.25c-0.1-0.08-0.19-0.17-0.29-0.25c-0.1-0.08-0.2-0.16-0.29-0.24
					c-0.1-0.08-0.2-0.16-0.3-0.24l1.59-1.52c0.11,0.08,0.21,0.16,0.32,0.24c0.11,0.08,0.21,0.17,0.32,0.25
					c0.1,0.08,0.21,0.17,0.31,0.26c0.1,0.09,0.21,0.17,0.31,0.26L118.17,113.48z"/>
			</g>
			<g>
				<path class="st5" d="M76.79,191.51c0.12,0.03,0.24,0.07,0.37,0.1c0.12,0.03,0.25,0.06,0.37,0.09c0.12,0.03,0.25,0.06,0.37,0.09
					c0.13,0.03,0.25,0.06,0.38,0.08l-0.23,2.24c-0.13-0.03-0.26-0.06-0.39-0.1c-0.13-0.03-0.26-0.07-0.39-0.1
					c-0.13-0.03-0.26-0.07-0.39-0.11c-0.13-0.04-0.26-0.07-0.38-0.11L76.79,191.51z"/>
			</g>
			<g>
				<path class="st5" d="M120.47,115.82c-0.09-0.1-0.18-0.2-0.27-0.3c-0.09-0.1-0.18-0.2-0.27-0.3c-0.09-0.1-0.18-0.2-0.27-0.29
					c-0.09-0.1-0.18-0.19-0.28-0.29l1.76-1.47c0.1,0.1,0.2,0.2,0.3,0.3c0.1,0.1,0.2,0.2,0.29,0.3c0.1,0.1,0.19,0.2,0.29,0.31
					c0.1,0.1,0.19,0.21,0.29,0.31L120.47,115.82z"/>
			</g>
			<g>
				<path class="st5" d="M79.92,192.17c0.13,0.02,0.26,0.04,0.39,0.05c0.13,0.02,0.26,0.03,0.4,0.05c0.13,0.01,0.27,0.03,0.4,0.04
					c0.13,0.01,0.27,0.02,0.4,0.04l-0.07,2.33c-0.14-0.01-0.28-0.03-0.42-0.05c-0.14-0.02-0.28-0.03-0.42-0.05
					c-0.14-0.02-0.28-0.04-0.42-0.06c-0.14-0.02-0.28-0.04-0.41-0.06L79.92,192.17z"/>
			</g>
			<g>
				<path class="st5" d="M122.55,118.57c-0.08-0.12-0.16-0.24-0.24-0.36c-0.08-0.12-0.16-0.23-0.24-0.35
					c-0.08-0.12-0.16-0.23-0.25-0.34c-0.08-0.11-0.17-0.23-0.25-0.34l1.92-1.38c0.09,0.12,0.18,0.23,0.27,0.35
					c0.09,0.12,0.18,0.24,0.27,0.36c0.09,0.12,0.18,0.24,0.26,0.36c0.09,0.12,0.17,0.24,0.26,0.37L122.55,118.57z"/>
			</g>
			<g>
				<path class="st5" d="M83.28,192.43c0.14,0,0.28,0,0.42,0c0.14,0,0.28,0,0.42,0c0.14,0,0.28-0.01,0.43-0.01
					c0.14,0,0.29-0.01,0.43-0.02l0.1,2.4c-0.15,0-0.3,0.01-0.45,0.01c-0.15,0-0.3,0-0.45,0c-0.15,0-0.3,0-0.44,0
					c-0.15,0-0.29-0.01-0.44-0.01L83.28,192.43z"/>
			</g>
			<g>
				<path class="st5" d="M124.37,121.74c-0.07-0.14-0.14-0.27-0.21-0.41c-0.07-0.13-0.14-0.27-0.21-0.4
					c-0.07-0.13-0.14-0.26-0.21-0.39c-0.07-0.13-0.14-0.26-0.22-0.39l2.08-1.27c0.08,0.13,0.16,0.27,0.24,0.4
					c0.08,0.14,0.16,0.27,0.23,0.41c0.08,0.14,0.15,0.28,0.23,0.42c0.08,0.14,0.15,0.28,0.22,0.42L124.37,121.74z"/>
			</g>
			<g>
				<path class="st5" d="M87.03,194.69l-0.19-2.43c0.15-0.02,0.29-0.03,0.44-0.05c0.15-0.02,0.3-0.04,0.44-0.06
					c0.15-0.02,0.3-0.04,0.45-0.07c0.15-0.02,0.3-0.05,0.45-0.07l0.29,2.46c-0.16,0.02-0.32,0.05-0.47,0.07
					c-0.16,0.02-0.31,0.04-0.47,0.06c-0.16,0.02-0.31,0.04-0.47,0.05C87.34,194.66,87.18,194.68,87.03,194.69z"/>
			</g>
			<g>
				<path class="st5" d="M125.19,123.54l2.23-1.13c0.07,0.15,0.13,0.3,0.2,0.46c0.07,0.15,0.13,0.31,0.19,0.46
					c0.06,0.15,0.13,0.31,0.19,0.47c0.06,0.16,0.12,0.31,0.18,0.47l-2.29,1.05c-0.05-0.15-0.11-0.3-0.17-0.45
					c-0.06-0.15-0.11-0.3-0.17-0.45c-0.06-0.15-0.12-0.3-0.18-0.44C125.31,123.83,125.25,123.68,125.19,123.54z"/>
			</g>
			<g>
				<path class="st5" d="M90.95,194.08l-0.4-2.47c0.15-0.04,0.31-0.07,0.46-0.11c0.15-0.04,0.31-0.08,0.46-0.12
					c0.15-0.04,0.31-0.08,0.46-0.13c0.15-0.04,0.31-0.09,0.46-0.13l0.5,2.48c-0.16,0.05-0.33,0.09-0.49,0.13
					c-0.16,0.04-0.33,0.08-0.49,0.13c-0.16,0.04-0.33,0.08-0.49,0.12C91.27,194.01,91.11,194.04,90.95,194.08z"/>
			</g>
			<g>
				<path class="st5" d="M127.05,129.27c-0.04-0.17-0.08-0.33-0.12-0.5c-0.04-0.16-0.08-0.33-0.13-0.49
					c-0.04-0.16-0.09-0.33-0.13-0.49c-0.04-0.16-0.09-0.32-0.14-0.48l2.36-0.96c0.05,0.17,0.1,0.34,0.15,0.5
					c0.05,0.17,0.1,0.34,0.15,0.51c0.05,0.17,0.09,0.34,0.14,0.52c0.05,0.17,0.09,0.35,0.13,0.52L127.05,129.27z"/>
			</g>
			<g>
				<path class="st5" d="M95.02,192.93l-0.62-2.47c0.16-0.06,0.31-0.11,0.47-0.17c0.16-0.06,0.32-0.12,0.47-0.18
					c0.16-0.06,0.32-0.12,0.47-0.19c0.16-0.06,0.32-0.13,0.47-0.2l0.73,2.46c-0.17,0.07-0.34,0.14-0.5,0.2
					c-0.17,0.07-0.33,0.13-0.5,0.19c-0.17,0.06-0.33,0.12-0.5,0.18C95.35,192.82,95.18,192.88,95.02,192.93z"/>
			</g>
			<g>
				<path class="st5" d="M127.8,133.57c-0.02-0.18-0.05-0.36-0.07-0.54c-0.02-0.18-0.05-0.36-0.08-0.53
					c-0.03-0.18-0.05-0.35-0.08-0.53c-0.03-0.18-0.06-0.35-0.09-0.52l2.47-0.75c0.03,0.18,0.07,0.37,0.1,0.55
					c0.03,0.18,0.06,0.37,0.09,0.56c0.03,0.19,0.06,0.37,0.09,0.56c0.03,0.19,0.05,0.38,0.08,0.57L127.8,133.57z"/>
			</g>
			<g>
				<path class="st5" d="M99.17,191.23l-0.85-2.44c0.16-0.08,0.32-0.16,0.48-0.24c0.16-0.08,0.32-0.16,0.48-0.25
					c0.16-0.08,0.32-0.17,0.48-0.25c0.16-0.09,0.32-0.17,0.48-0.26l0.97,2.41c-0.17,0.09-0.34,0.18-0.51,0.27
					c-0.17,0.09-0.34,0.18-0.51,0.26c-0.17,0.09-0.34,0.17-0.51,0.25C99.51,191.07,99.34,191.15,99.17,191.23z"/>
			</g>
			<g>
				<path class="st5" d="M128.12,138.18c0-0.19-0.01-0.38-0.01-0.57c-0.01-0.19-0.01-0.38-0.02-0.57c-0.01-0.19-0.02-0.38-0.03-0.56
					c-0.01-0.19-0.02-0.37-0.03-0.56l2.56-0.52c0.02,0.2,0.03,0.39,0.04,0.59c0.01,0.2,0.02,0.4,0.04,0.59
					c0.01,0.2,0.02,0.4,0.03,0.6c0.01,0.2,0.02,0.4,0.02,0.6L128.12,138.18z"/>
			</g>
			<g>
				<path class="st5" d="M103.36,188.95l-1.09-2.37c0.16-0.1,0.32-0.2,0.47-0.3c0.16-0.1,0.32-0.21,0.47-0.31
					c0.16-0.11,0.32-0.21,0.47-0.32c0.16-0.11,0.32-0.22,0.47-0.33l1.21,2.32c-0.17,0.12-0.33,0.23-0.5,0.34
					c-0.17,0.11-0.34,0.22-0.5,0.33c-0.17,0.11-0.34,0.22-0.5,0.32C103.7,188.74,103.53,188.84,103.36,188.95z"/>
			</g>
			<g>
				<path class="st5" d="M127.97,143.02c0.02-0.2,0.03-0.4,0.04-0.6c0.01-0.2,0.03-0.4,0.04-0.59c0.01-0.2,0.02-0.39,0.03-0.59
					c0.01-0.2,0.02-0.39,0.02-0.59l2.61-0.25c-0.01,0.21-0.01,0.41-0.02,0.62c-0.01,0.21-0.02,0.42-0.03,0.63
					c-0.01,0.21-0.02,0.42-0.03,0.63c-0.01,0.21-0.03,0.42-0.04,0.63L127.97,143.02z"/>
			</g>
			<g>
				<path class="st5" d="M107.5,186.08l-1.34-2.26c0.15-0.12,0.31-0.24,0.46-0.37c0.15-0.12,0.31-0.25,0.46-0.38
					c0.15-0.13,0.31-0.25,0.46-0.38c0.15-0.13,0.31-0.26,0.46-0.39l1.46,2.19c-0.16,0.14-0.33,0.28-0.49,0.41
					c-0.16,0.14-0.33,0.27-0.49,0.4c-0.16,0.13-0.33,0.26-0.49,0.39C107.83,185.83,107.67,185.96,107.5,186.08z"/>
			</g>
			<g>
				<path class="st5" d="M127.31,148.05c0.04-0.21,0.07-0.41,0.11-0.62c0.03-0.2,0.07-0.41,0.1-0.61c0.03-0.2,0.06-0.41,0.09-0.61
					c0.03-0.2,0.06-0.41,0.08-0.61l2.63,0.04c-0.03,0.21-0.05,0.43-0.08,0.65c-0.03,0.22-0.06,0.43-0.09,0.65
					c-0.03,0.22-0.07,0.43-0.1,0.65c-0.03,0.22-0.07,0.43-0.11,0.65L127.31,148.05z"/>
			</g>
			<g>
				<path class="st5" d="M111.52,182.65l-1.59-2.1c0.15-0.14,0.3-0.28,0.44-0.43c0.15-0.14,0.29-0.29,0.44-0.44
					c0.15-0.15,0.29-0.29,0.44-0.44c0.15-0.15,0.29-0.3,0.44-0.45l1.7,2.01c-0.15,0.16-0.31,0.32-0.46,0.47
					c-0.15,0.16-0.31,0.31-0.47,0.47c-0.16,0.15-0.31,0.31-0.47,0.46C111.83,182.36,111.68,182.5,111.52,182.65z"/>
			</g>
			<g>
				<path class="st5" d="M126.15,153.16c0.06-0.21,0.11-0.41,0.17-0.62c0.05-0.21,0.11-0.41,0.16-0.62c0.05-0.21,0.1-0.41,0.15-0.62
					c0.05-0.21,0.1-0.41,0.15-0.62l2.61,0.34c-0.05,0.22-0.1,0.44-0.15,0.66c-0.05,0.22-0.1,0.44-0.16,0.66
					c-0.05,0.22-0.11,0.44-0.17,0.66c-0.06,0.22-0.12,0.44-0.17,0.66L126.15,153.16z"/>
			</g>
			<g>
				<path class="st5" d="M115.32,178.71l-1.82-1.9c0.14-0.16,0.28-0.32,0.41-0.48c0.14-0.16,0.27-0.32,0.41-0.49
					c0.14-0.16,0.27-0.33,0.41-0.5c0.14-0.17,0.27-0.33,0.4-0.5l1.93,1.79c-0.14,0.18-0.29,0.36-0.43,0.53
					c-0.14,0.18-0.29,0.35-0.43,0.52c-0.15,0.17-0.29,0.35-0.44,0.52C115.62,178.37,115.47,178.54,115.32,178.71z"/>
			</g>
			<g>
				<path class="st5" d="M124.48,158.27c0.08-0.21,0.15-0.41,0.23-0.62c0.07-0.21,0.15-0.41,0.22-0.62
					c0.07-0.21,0.14-0.41,0.21-0.62c0.07-0.21,0.14-0.41,0.21-0.62l2.55,0.66c-0.07,0.22-0.14,0.44-0.22,0.65
					c-0.07,0.22-0.15,0.44-0.22,0.65c-0.08,0.22-0.15,0.44-0.23,0.65c-0.08,0.22-0.16,0.44-0.24,0.65L124.48,158.27z"/>
			</g>
			<g>
				<path class="st5" d="M118.84,174.3l-2.03-1.67c0.13-0.18,0.25-0.35,0.38-0.53c0.12-0.18,0.25-0.36,0.37-0.54
					c0.12-0.18,0.25-0.36,0.37-0.54c0.12-0.18,0.24-0.36,0.36-0.55l2.13,1.54c-0.13,0.19-0.26,0.39-0.39,0.58
					c-0.13,0.19-0.26,0.38-0.39,0.57c-0.13,0.19-0.26,0.38-0.4,0.57C119.1,173.92,118.97,174.11,118.84,174.3z"/>
			</g>
			<g>
				<path class="st5" d="M122.34,163.28c0.1-0.2,0.19-0.4,0.28-0.6c0.09-0.2,0.19-0.4,0.28-0.6c0.09-0.2,0.18-0.4,0.27-0.6
					c0.09-0.2,0.18-0.4,0.26-0.6l2.44,0.97c-0.09,0.21-0.18,0.43-0.28,0.64c-0.09,0.21-0.19,0.43-0.29,0.64
					c-0.1,0.21-0.19,0.42-0.29,0.64s-0.2,0.42-0.3,0.64L122.34,163.28z"/>
			</g>
			<g>
				<path class="st5" d="M121.99,169.49l-2.22-1.4c0.11-0.19,0.22-0.38,0.33-0.57c0.11-0.19,0.22-0.38,0.33-0.57
					c0.11-0.19,0.22-0.38,0.32-0.58c0.11-0.19,0.21-0.39,0.32-0.58l2.3,1.26c-0.11,0.21-0.22,0.41-0.34,0.62
					c-0.11,0.2-0.23,0.41-0.34,0.61c-0.11,0.2-0.23,0.41-0.35,0.61C122.23,169.09,122.11,169.29,121.99,169.49z"/>
			</g>
		</g>
	</g>
	<g class="st3">
		<g class="st4">
			<g>
				<path class="st5" d="M29.34,118.23c-0.23,0.44-0.45,0.89-0.67,1.33c-0.22,0.44-0.44,0.89-0.66,1.33
					c-0.22,0.44-0.43,0.89-0.64,1.33c-0.21,0.44-0.42,0.89-0.62,1.33l-3.51-1.29c0.22-0.48,0.45-0.96,0.67-1.43
					c0.23-0.48,0.46-0.96,0.69-1.43c0.23-0.48,0.47-0.95,0.71-1.43c0.24-0.48,0.48-0.95,0.72-1.43c0.14-0.27,0.28-0.54,0.42-0.81
					c0.14-0.27,0.28-0.54,0.42-0.81c0.14-0.27,0.28-0.53,0.42-0.8c0.14-0.27,0.28-0.53,0.43-0.8l3.19,1.91
					c-0.13,0.25-0.27,0.49-0.4,0.74c-0.13,0.25-0.26,0.5-0.39,0.75c-0.13,0.25-0.26,0.5-0.39,0.75
					C29.6,117.73,29.47,117.98,29.34,118.23z"/>
			</g>
			<g>
				<path class="st5" d="M34.16,102.39l2.75,2.71c-0.42,0.64-0.83,1.29-1.24,1.95c-0.41,0.65-0.81,1.31-1.22,1.98
					c-0.4,0.66-0.8,1.33-1.19,2.01c-0.39,0.67-0.78,1.35-1.16,2.04l-3.1-2.08c0.41-0.74,0.83-1.47,1.25-2.19
					c0.42-0.73,0.85-1.45,1.28-2.16c0.43-0.72,0.87-1.43,1.3-2.13C33.27,103.79,33.71,103.09,34.16,102.39z"/>
			</g>
			<g>
				<path class="st5" d="M25.73,125.83c-0.32,0.72-0.63,1.43-0.93,2.15c-0.3,0.72-0.6,1.44-0.89,2.16
					c-0.29,0.72-0.57,1.44-0.85,2.16c-0.28,0.72-0.55,1.44-0.81,2.16L18.36,134c0.29-0.78,0.58-1.56,0.89-2.33
					c0.3-0.78,0.61-1.55,0.93-2.33c0.31-0.77,0.64-1.55,0.96-2.32c0.33-0.77,0.66-1.54,1.01-2.32L25.73,125.83z"/>
			</g>
			<g>
				<path class="st5" d="M41.5,91.94l2.25,3.51c-0.47,0.61-0.94,1.23-1.41,1.85c-0.46,0.62-0.93,1.25-1.38,1.88
					c-0.46,0.63-0.91,1.27-1.35,1.91c-0.45,0.64-0.89,1.29-1.33,1.94l-2.65-2.87c0.47-0.7,0.94-1.4,1.42-2.1
					c0.48-0.69,0.96-1.38,1.45-2.07c0.49-0.69,0.98-1.36,1.48-2.04C40.49,93.27,40.99,92.6,41.5,91.94z"/>
			</g>
			<g>
				<path class="st5" d="M21.4,136.8c-0.26,0.74-0.51,1.48-0.75,2.22c-0.24,0.74-0.48,1.49-0.71,2.23
					c-0.23,0.74-0.46,1.49-0.67,2.24c-0.22,0.75-0.43,1.49-0.64,2.24l-4.24,0.43c0.23-0.81,0.46-1.61,0.7-2.42
					c0.24-0.8,0.49-1.61,0.74-2.41c0.25-0.8,0.51-1.6,0.78-2.4c0.27-0.8,0.54-1.6,0.82-2.4L21.4,136.8z"/>
			</g>
			<g>
				<path class="st5" d="M51.44,86.35c-0.53,0.57-1.06,1.16-1.58,1.74c-0.52,0.58-1.04,1.17-1.55,1.77
					c-0.51,0.59-1.02,1.19-1.52,1.8c-0.5,0.6-1,1.21-1.49,1.82l-2.14-3.68c0.53-0.67,1.06-1.33,1.6-1.99
					c0.54-0.66,1.08-1.31,1.63-1.96c0.55-0.65,1.1-1.29,1.66-1.93c0.56-0.64,1.12-1.27,1.69-1.9L51.44,86.35z"/>
			</g>
			<g>
				<path class="st5" d="M17.99,148.14c-0.19,0.76-0.38,1.52-0.56,2.29c-0.18,0.76-0.36,1.53-0.52,2.29
					c-0.17,0.77-0.33,1.54-0.48,2.3c-0.15,0.77-0.3,1.54-0.44,2.31l-4.56,1.38c0.16-0.84,0.33-1.67,0.5-2.5
					c0.17-0.83,0.36-1.66,0.55-2.49c0.19-0.83,0.38-1.66,0.59-2.48c0.2-0.82,0.41-1.65,0.63-2.47L17.99,148.14z"/>
			</g>
			<g>
				<path class="st5" d="M59.97,77.89c-0.59,0.53-1.17,1.07-1.75,1.61c-0.58,0.54-1.15,1.09-1.72,1.64
					c-0.57,0.55-1.13,1.11-1.68,1.67c-0.56,0.56-1.11,1.13-1.65,1.7l-1.56-4.5c0.59-0.63,1.18-1.25,1.78-1.86
					c0.6-0.62,1.2-1.23,1.81-1.83c0.61-0.61,1.23-1.21,1.85-1.81c0.62-0.6,1.25-1.19,1.88-1.78L59.97,77.89z"/>
			</g>
			<g>
				<path class="st5" d="M15.55,159.82c-0.13,0.78-0.25,1.56-0.36,2.35c-0.11,0.78-0.22,1.57-0.32,2.35
					c-0.1,0.79-0.19,1.58-0.28,2.36c-0.08,0.79-0.16,1.58-0.23,2.37l-4.86,2.41c0.09-0.86,0.18-1.72,0.29-2.58
					c0.1-0.86,0.21-1.71,0.33-2.57c0.12-0.85,0.24-1.71,0.38-2.56c0.13-0.85,0.27-1.7,0.42-2.55L15.55,159.82z"/>
			</g>
			<g>
				<path class="st5" d="M69.36,70.19c-0.65,0.48-1.29,0.96-1.92,1.45c-0.63,0.49-1.26,0.98-1.89,1.49
					c-0.62,0.5-1.24,1.01-1.85,1.52c-0.61,0.51-1.22,1.03-1.82,1.55l-0.89-5.35c0.65-0.58,1.31-1.15,1.97-1.72
					c0.66-0.57,1.33-1.13,2-1.69c0.68-0.56,1.36-1.11,2.04-1.66c0.69-0.55,1.38-1.09,2.08-1.63L69.36,70.19z"/>
			</g>
			<g>
				<path class="st5" d="M14.16,171.8c-0.05,0.8-0.1,1.6-0.14,2.39c-0.04,0.8-0.07,1.6-0.09,2.4c-0.02,0.8-0.04,1.61-0.05,2.41
					c-0.01,0.81-0.01,1.61,0,2.42l-5.11,3.57c0.01-0.89,0.02-1.77,0.04-2.66c0.02-0.88,0.05-1.76,0.09-2.64
					c0.04-0.88,0.09-1.75,0.14-2.63c0.06-0.87,0.12-1.74,0.19-2.62L14.16,171.8z"/>
			</g>
			<g>
				<path class="st5" d="M79.62,63.42c-0.7,0.41-1.4,0.83-2.1,1.26c-0.69,0.42-1.38,0.86-2.06,1.3c-0.68,0.44-1.35,0.88-2.03,1.34
					c-0.67,0.45-1.33,0.91-1.99,1.38l-0.11-6.23c0.72-0.52,1.44-1.04,2.16-1.55c0.73-0.51,1.46-1.02,2.2-1.52
					c0.74-0.5,1.49-0.99,2.25-1.48c0.76-0.49,1.52-0.97,2.29-1.44L79.62,63.42z"/>
			</g>
			<g>
				<path class="st5" d="M13.94,184.01c0.03,0.81,0.06,1.62,0.11,2.42c0.05,0.81,0.1,1.62,0.16,2.43c0.06,0.81,0.14,1.63,0.22,2.44
					c0.08,0.82,0.17,1.63,0.27,2.44l-5.29,4.88c-0.09-0.9-0.17-1.81-0.24-2.71c-0.07-0.9-0.13-1.8-0.18-2.7
					c-0.05-0.9-0.09-1.79-0.12-2.69c-0.03-0.89-0.05-1.78-0.07-2.67L13.94,184.01z"/>
			</g>
			<g>
				<path class="st5" d="M90.74,57.79c-0.76,0.33-1.52,0.66-2.27,1.01c-0.75,0.34-1.49,0.7-2.23,1.06
					c-0.74,0.36-1.47,0.73-2.19,1.11c-0.72,0.38-1.44,0.76-2.16,1.16l0.84-7.14c0.78-0.46,1.57-0.9,2.36-1.34
					c0.8-0.44,1.6-0.87,2.41-1.3c0.81-0.43,1.63-0.84,2.46-1.25c0.83-0.41,1.67-0.81,2.51-1.2L90.74,57.79z"/>
			</g>
			<g>
				<path class="st5" d="M15.06,196.35c0.12,0.81,0.25,1.62,0.39,2.42c0.14,0.81,0.29,1.62,0.45,2.43c0.16,0.81,0.33,1.62,0.52,2.43
					c0.18,0.81,0.38,1.62,0.58,2.43l-5.39,6.37c-0.2-0.91-0.4-1.83-0.58-2.74c-0.18-0.91-0.35-1.82-0.5-2.73
					c-0.16-0.91-0.3-1.81-0.43-2.72c-0.13-0.9-0.26-1.81-0.37-2.71L15.06,196.35z"/>
			</g>
			<g>
				<path class="st5" d="M102.71,53.59c-0.82,0.22-1.63,0.46-2.44,0.7c-0.8,0.24-1.6,0.5-2.4,0.77c-0.79,0.26-1.58,0.54-2.36,0.83
					c-0.78,0.28-1.55,0.58-2.32,0.88l1.99-8.09c0.85-0.37,1.71-0.73,2.57-1.07c0.87-0.35,1.74-0.69,2.62-1.02
					c0.89-0.33,1.78-0.65,2.67-0.95c0.9-0.31,1.81-0.61,2.73-0.89L102.71,53.59z"/>
			</g>
			<g>
				<path class="st5" d="M17.7,208.64c0.23,0.8,0.47,1.59,0.72,2.38c0.25,0.8,0.51,1.59,0.79,2.38c0.28,0.8,0.56,1.59,0.86,2.38
					c0.3,0.79,0.62,1.58,0.94,2.37l-5.33,8.06c-0.34-0.9-0.66-1.81-0.97-2.72c-0.31-0.9-0.6-1.81-0.88-2.72
					c-0.28-0.9-0.54-1.81-0.8-2.71c-0.25-0.9-0.49-1.8-0.72-2.71L17.7,208.64z"/>
			</g>
			<g>
				<path class="st5" d="M115.42,51.19c-0.87,0.09-1.73,0.2-2.59,0.32c-0.85,0.12-1.7,0.25-2.54,0.4c-0.84,0.14-1.67,0.3-2.5,0.47
					c-0.82,0.17-1.64,0.35-2.46,0.55l3.39-9.04c0.92-0.25,1.84-0.5,2.76-0.73c0.93-0.23,1.87-0.45,2.82-0.65
					c0.95-0.21,1.91-0.4,2.87-0.58c0.97-0.18,1.95-0.34,2.93-0.49L115.42,51.19z"/>
			</g>
			<g>
				<path class="st5" d="M26.96,229.71c0.01,0.01,0.01,0.02,0.02,0.03c0.01,0.01,0.01,0.02,0.02,0.03c0.01,0.01,0.01,0.02,0.02,0.03
					c0.01,0.01,0.01,0.02,0.02,0.03l-5.07,9.96c-0.01-0.01-0.02-0.03-0.02-0.04c-0.01-0.01-0.02-0.03-0.02-0.04
					c-0.01-0.01-0.02-0.03-0.02-0.04c-0.01-0.01-0.02-0.03-0.02-0.04c-0.49-0.87-0.96-1.75-1.42-2.64
					c-0.45-0.88-0.89-1.76-1.32-2.64c-0.42-0.88-0.83-1.76-1.22-2.65c-0.39-0.88-0.76-1.76-1.13-2.65l5.3-8.44
					c0.35,0.77,0.71,1.53,1.08,2.29c0.38,0.76,0.77,1.52,1.17,2.28c0.41,0.76,0.83,1.51,1.26,2.26
					C26.05,228.22,26.5,228.97,26.96,229.71z"/>
			</g>
			<g>
				<path class="st5" d="M118.18,50.95l5.06-9.94c0.01,0,0.02,0,0.02,0c0.01,0,0.02,0,0.02,0c0.01,0,0.02,0,0.02,0
					c0.01,0,0.02,0,0.02,0c1-0.12,1.99-0.21,2.98-0.3c1-0.08,2-0.15,3-0.2c1.01-0.05,2.01-0.08,3.01-0.09
					c1.01-0.01,2.01-0.01,3.02,0.01l-6.62,10.55c-0.87-0.07-1.74-0.12-2.61-0.15c-0.87-0.04-1.74-0.05-2.62-0.06
					c-0.87,0-1.74,0.01-2.62,0.04c-0.87,0.03-1.74,0.07-2.62,0.13c-0.01,0-0.01,0-0.02,0c-0.01,0-0.01,0-0.02,0
					c-0.01,0-0.01,0-0.02,0C118.19,50.95,118.19,50.95,118.18,50.95z"/>
			</g>
			<g>
				<path class="st5" d="M28.57,232.19c0.5,0.74,1.01,1.46,1.54,2.17c0.53,0.72,1.07,1.42,1.62,2.11c0.55,0.7,1.12,1.38,1.7,2.05
					c0.58,0.67,1.17,1.33,1.78,1.98l-4.51,12.04c-0.65-0.79-1.29-1.59-1.92-2.4c-0.62-0.81-1.23-1.63-1.82-2.46
					c-0.59-0.83-1.16-1.67-1.73-2.52c-0.56-0.84-1.1-1.7-1.63-2.57L28.57,232.19z"/>
			</g>
			<g>
				<path class="st5" d="M142.3,53.51c-0.88-0.27-1.77-0.51-2.66-0.74c-0.89-0.22-1.78-0.43-2.68-0.62
					c-0.89-0.19-1.79-0.35-2.69-0.5c-0.89-0.15-1.79-0.27-2.7-0.38l7.07-10.7c1.05,0.07,2.1,0.15,3.14,0.26
					c1.05,0.11,2.1,0.24,3.15,0.39c1.05,0.15,2.1,0.32,3.15,0.52c1.05,0.2,2.1,0.41,3.14,0.65L142.3,53.51z"/>
			</g>
			<g>
				<path class="st5" d="M37.22,242.56c0.66,0.64,1.32,1.27,2,1.88c0.69,0.62,1.38,1.22,2.09,1.8c0.72,0.59,1.44,1.16,2.18,1.72
					c0.75,0.56,1.51,1.11,2.28,1.63l-3.5,14.26c-0.85-0.67-1.69-1.36-2.51-2.07c-0.81-0.7-1.62-1.42-2.4-2.16
					c-0.78-0.73-1.54-1.48-2.29-2.24c-0.74-0.76-1.47-1.53-2.18-2.32L37.22,242.56z"/>
			</g>
			<g>
				<path class="st5" d="M155.68,59.35c-0.85-0.5-1.71-0.98-2.58-1.44c-0.86-0.45-1.74-0.88-2.62-1.29
					c-0.87-0.41-1.76-0.79-2.65-1.15c-0.88-0.36-1.77-0.7-2.67-1.02l9.45-11.19c1.07,0.3,2.13,0.62,3.19,0.97
					c1.07,0.35,2.12,0.72,3.17,1.12c1.06,0.4,2.11,0.83,3.16,1.28c1.05,0.46,2.1,0.94,3.13,1.45L155.68,59.35z"/>
			</g>
			<g>
				<path class="st5" d="M48.33,251.25c0.82,0.5,1.66,0.99,2.51,1.45c0.86,0.47,1.72,0.92,2.6,1.35c0.89,0.43,1.79,0.85,2.7,1.24
					c0.92,0.4,1.85,0.77,2.79,1.12L57,272.9c-1.07-0.49-2.12-1.01-3.15-1.55c-1.03-0.53-2.04-1.09-3.03-1.67
					c-0.99-0.57-1.96-1.17-2.91-1.79c-0.95-0.61-1.88-1.25-2.79-1.9L48.33,251.25z"/>
			</g>
			<g>
				<path class="st5" d="M158.42,61.05l12.17-11.23c1.04,0.58,2.08,1.19,3.1,1.82c1.03,0.64,2.05,1.31,3.05,2.01
					c1.01,0.7,2.02,1.44,3,2.2c1,0.77,1.98,1.56,2.94,2.39L168.2,69.03c-0.77-0.77-1.56-1.51-2.36-2.23
					c-0.79-0.71-1.6-1.4-2.42-2.07c-0.81-0.66-1.64-1.3-2.48-1.91C160.11,62.2,159.27,61.62,158.42,61.05z"/>
			</g>
			<g>
				<path class="st5" d="M62.03,257.47c1,0.31,2,0.6,3.02,0.87c1.03,0.27,2.06,0.51,3.11,0.73c1.06,0.22,2.13,0.41,3.2,0.58
					c1.09,0.17,2.19,0.31,3.3,0.43l0.33,18.48c-1.28-0.23-2.55-0.5-3.8-0.79c-1.24-0.29-2.47-0.61-3.68-0.96
					c-1.2-0.35-2.39-0.72-3.56-1.12c-1.16-0.4-2.31-0.82-3.44-1.28L62.03,257.47z"/>
			</g>
			<g>
				<path class="st5" d="M178.97,82.93c-0.63-1.05-1.27-2.08-1.94-3.09c-0.66-1-1.34-1.97-2.04-2.92c-0.69-0.94-1.4-1.86-2.13-2.75
					c-0.72-0.88-1.46-1.74-2.22-2.58l15.12-10.59c0.95,0.91,1.89,1.85,2.81,2.81c0.93,0.98,1.83,1.98,2.72,3.02
					c0.9,1.05,1.77,2.12,2.63,3.23c0.86,1.12,1.7,2.26,2.52,3.44L178.97,82.93z"/>
			</g>
			<g>
				<path class="st5" d="M78.28,260.35c1.15,0.06,2.32,0.09,3.49,0.09c1.18,0,2.37-0.03,3.57-0.08c1.21-0.06,2.42-0.15,3.65-0.27
					c1.23-0.12,2.47-0.27,3.72-0.45l3.36,19.94c-1.47,0.11-2.93,0.19-4.38,0.23c-1.44,0.04-2.86,0.04-4.28,0.01
					c-1.4-0.03-2.79-0.1-4.17-0.21c-1.36-0.1-2.72-0.24-4.06-0.41L78.28,260.35z"/>
			</g>
			<g>
				<path class="st5" d="M186.93,101.14c-0.41-1.33-0.84-2.64-1.3-3.93c-0.46-1.28-0.94-2.53-1.44-3.77
					c-0.5-1.22-1.03-2.42-1.58-3.6c-0.54-1.17-1.11-2.31-1.7-3.43l18.08-9c0.78,1.26,1.53,2.55,2.26,3.88
					c0.73,1.33,1.44,2.7,2.12,4.09c0.69,1.41,1.34,2.84,1.97,4.31c0.63,1.48,1.23,2.98,1.8,4.52L186.93,101.14z"/>
			</g>
			<g>
				<path class="st5" d="M96.75,258.94c1.28-0.25,2.56-0.54,3.85-0.86c1.3-0.32,2.6-0.68,3.9-1.07c1.31-0.39,2.63-0.82,3.95-1.28
					c1.33-0.47,2.66-0.97,3.99-1.5l7.14,20.45c-1.6,0.54-3.19,1.04-4.79,1.5c-1.58,0.45-3.15,0.86-4.72,1.23
					c-1.56,0.36-3.11,0.69-4.65,0.97c-1.53,0.28-3.05,0.52-4.57,0.72L96.75,258.94z"/>
			</g>
			<g>
				<path class="st5" d="M190.95,123.25c-0.11-1.57-0.25-3.12-0.43-4.65c-0.17-1.52-0.38-3.03-0.62-4.52
					c-0.24-1.48-0.5-2.94-0.8-4.37c-0.29-1.43-0.61-2.84-0.96-4.23l20.72-6.26c0.5,1.61,0.97,3.25,1.41,4.91
					c0.44,1.68,0.84,3.38,1.2,5.11c0.37,1.74,0.7,3.51,0.99,5.3c0.29,1.8,0.55,3.63,0.76,5.48L190.95,123.25z"/>
			</g>
			<g>
				<path class="st5" d="M116.71,252.38c1.34-0.62,2.67-1.27,4.01-1.95c1.34-0.69,2.68-1.42,4.02-2.18
					c1.34-0.77,2.68-1.57,4.01-2.41c1.34-0.84,2.67-1.72,4-2.64l11.44,19.6c-1.62,1.02-3.24,2-4.88,2.93
					c-1.62,0.92-3.25,1.8-4.88,2.64c-1.62,0.83-3.24,1.61-4.87,2.35c-1.61,0.73-3.23,1.42-4.85,2.06L116.71,252.38z"/>
			</g>
			<g>
				<path class="st5" d="M190.03,148.26c0.24-1.72,0.44-3.42,0.61-5.12c0.17-1.69,0.3-3.37,0.39-5.04c0.1-1.66,0.16-3.31,0.18-4.95
					c0.03-1.63,0.02-3.24-0.02-4.84l22.57-2.3c0.13,1.9,0.21,3.82,0.25,5.75c0.04,1.95,0.04,3.91-0.01,5.9
					c-0.05,1.99-0.14,4-0.27,6.03c-0.14,2.03-0.32,4.08-0.55,6.14L190.03,148.26z"/>
			</g>
			<g>
				<path class="st5" d="M149.35,259.36l-12.38-19.21c1.3-0.99,2.6-2.01,3.88-3.07c1.29-1.06,2.57-2.16,3.83-3.3
					c1.27-1.14,2.53-2.31,3.77-3.52c1.25-1.21,2.48-2.46,3.69-3.74l15.82,17.12c-1.49,1.5-3,2.95-4.54,4.36
					c-1.52,1.4-3.07,2.76-4.63,4.08c-1.55,1.31-3.12,2.57-4.7,3.79C152.53,257.07,150.94,258.24,149.35,259.36z"/>
			</g>
			<g>
				<path class="st5" d="M183.64,174.51c0.61-1.74,1.18-3.48,1.71-5.22c0.53-1.74,1.03-3.47,1.49-5.21
					c0.46-1.73,0.88-3.46,1.27-5.18c0.38-1.72,0.73-3.43,1.04-5.14l23.14,2.68c-0.32,2.06-0.69,4.12-1.11,6.19
					c-0.42,2.08-0.88,4.16-1.4,6.25c-0.51,2.09-1.08,4.19-1.69,6.28c-0.61,2.1-1.27,4.2-1.97,6.3L183.64,174.51z"/>
			</g>
			<g>
				<path class="st5" d="M172.62,238.73l-16.68-16.39c1.16-1.33,2.3-2.68,3.42-4.07c1.12-1.39,2.23-2.81,3.31-4.26
					c1.08-1.45,2.15-2.94,3.19-4.45c1.04-1.51,2.06-3.05,3.05-4.62l19.58,13.11c-1.21,1.88-2.45,3.72-3.72,5.52
					c-1.27,1.8-2.57,3.57-3.9,5.3c-1.32,1.72-2.68,3.41-4.05,5.06C175.44,235.57,174.04,237.17,172.62,238.73z"/>
			</g>
			<g>
				<path class="st5" d="M175.72,192.99c0.55-1.07,1.08-2.15,1.6-3.23c0.52-1.08,1.02-2.16,1.51-3.24c0.49-1.08,0.96-2.17,1.43-3.26
					c0.46-1.09,0.91-2.18,1.34-3.27l22.13,8.08c-0.51,1.32-1.03,2.63-1.58,3.94c-0.55,1.31-1.11,2.62-1.69,3.93
					c-0.58,1.31-1.19,2.61-1.81,3.9c-0.62,1.3-1.26,2.59-1.92,3.88c-0.36,0.71-0.73,1.41-1.09,2.11c-0.37,0.7-0.74,1.39-1.12,2.09
					c-0.38,0.69-0.76,1.38-1.15,2.06c-0.39,0.68-0.78,1.36-1.17,2.04l-20.23-12.11c0.33-0.56,0.65-1.13,0.97-1.7
					c0.32-0.57,0.64-1.14,0.95-1.72c0.31-0.58,0.62-1.15,0.93-1.74C175.12,194.16,175.42,193.58,175.72,192.99z"/>
			</g>
		</g>
	</g>
	<g class="st3">
		<path class="st5" d="M54.27,130.96c1.89-3.71,4.16-7.04,6.67-9.91c2.54-2.91,5.35-5.38,8.29-7.31c3.01-1.98,6.18-3.4,9.35-4.14
			c3.27-0.76,6.56-0.8,9.69,0.06c3.25,0.9,6.01,2.68,8.2,5.18c2.27,2.59,3.91,5.93,4.83,9.81c0.95,3.99,1.12,8.51,0.43,13.28
			c-0.7,4.85-2.28,9.9-4.79,14.82c-2.51,4.92-5.67,9.16-9.19,12.57c-3.46,3.36-7.22,5.87-11.01,7.44
			c-3.68,1.53-7.35,2.16-10.78,1.84c-3.31-0.31-6.37-1.5-9-3.61c-2.53-2.03-4.43-4.72-5.73-7.81c-1.26-3-1.96-6.4-2.12-10
			c-0.16-3.51,0.2-7.24,1.06-11C51.01,138.46,52.38,134.67,54.27,130.96z M96.36,152.46c2.45-4.8,4-9.73,4.69-14.47
			c0.68-4.66,0.52-9.08-0.39-12.99c-0.89-3.8-2.49-7.07-4.7-9.61c-2.14-2.45-4.83-4.21-8.01-5.1c-3.06-0.86-6.28-0.83-9.49-0.09
			c-3.11,0.72-6.22,2.11-9.17,4.04c-2.89,1.89-5.65,4.31-8.14,7.17c-2.46,2.82-4.69,6.09-6.55,9.73c-1.86,3.64-3.2,7.36-4.04,11.01
			c-0.85,3.69-1.19,7.35-1.03,10.8c0.16,3.53,0.86,6.86,2.1,9.8c1.28,3.03,3.15,5.66,5.64,7.63c2.58,2.05,5.59,3.21,8.83,3.5
			c3.36,0.3,6.94-0.33,10.54-1.83c3.7-1.55,7.37-4.01,10.75-7.29C90.82,161.4,93.91,157.26,96.36,152.46"/>
	</g>
	<g class="st3">
		<g class="st4">
			<g>
				<path class="st5" d="M90.19,149.31c-0.42,0.82-0.81,1.64-1.18,2.46c-0.37,0.82-0.72,1.65-1.05,2.47
					c-0.33,0.83-0.63,1.65-0.91,2.48c-0.28,0.83-0.54,1.66-0.78,2.48l-0.67,0c0.24-0.85,0.51-1.7,0.8-2.56
					c0.29-0.85,0.6-1.7,0.94-2.55c0.34-0.85,0.69-1.7,1.08-2.54c0.38-0.85,0.79-1.69,1.22-2.53c0-0.01,0.01-0.02,0.01-0.02
					c0-0.01,0.01-0.02,0.01-0.02c0-0.01,0.01-0.02,0.01-0.02c0-0.01,0.01-0.02,0.01-0.02l0.55,0.29c0,0.01-0.01,0.02-0.01,0.02
					c0,0.01-0.01,0.02-0.01,0.02c0,0.01-0.01,0.02-0.01,0.02C90.2,149.29,90.2,149.3,90.19,149.31z"/>
			</g>
			<g>
				<polygon class="st5" points="86.27,159.21 86.27,159.21 86.27,159.21 86.27,159.21 86.27,159.21 86.27,159.21 				"/>
			</g>
			<g>
				<path class="st5" d="M97.25,137.68l0.35,0.61c-0.57,0.65-1.13,1.33-1.67,2.02c-0.54,0.69-1.07,1.4-1.59,2.13
					c-0.52,0.73-1.02,1.48-1.51,2.24c-0.49,0.77-0.96,1.55-1.42,2.35l-0.52-0.35c0.47-0.83,0.96-1.63,1.46-2.42
					c0.5-0.79,1.02-1.56,1.55-2.31c0.53-0.75,1.08-1.49,1.64-2.2C96.09,139.05,96.67,138.35,97.25,137.68z"/>
			</g>
			<g>
				<path class="st5" d="M85.66,161.57c-0.21,0.87-0.39,1.74-0.55,2.61c-0.16,0.87-0.29,1.74-0.4,2.6
					c-0.11,0.87-0.19,1.73-0.25,2.59c-0.06,0.86-0.09,1.72-0.1,2.56l-0.76,0.38c0.01-0.87,0.05-1.76,0.11-2.64
					c0.06-0.88,0.15-1.77,0.27-2.66c0.11-0.89,0.25-1.78,0.42-2.68c0.16-0.89,0.35-1.79,0.57-2.69L85.66,161.57z"/>
			</g>
			<g>
				<path class="st5" d="M107.18,129.88c-0.7,0.46-1.4,0.94-2.09,1.45c-0.68,0.51-1.36,1.04-2.02,1.59
					c-0.66,0.55-1.31,1.13-1.95,1.73c-0.64,0.6-1.26,1.21-1.88,1.85l-0.3-0.66c0.63-0.66,1.28-1.3,1.93-1.91
					c0.66-0.62,1.33-1.21,2.01-1.78c0.68-0.57,1.38-1.12,2.08-1.65c0.71-0.53,1.43-1.03,2.15-1.5L107.18,129.88z"/>
			</g>
			<g>
				<path class="st5" d="M84.4,174.26c0.04,0.84,0.11,1.68,0.2,2.5c0.09,0.83,0.21,1.65,0.36,2.45c0.15,0.81,0.33,1.61,0.53,2.39
					c0.21,0.79,0.44,1.57,0.71,2.32l-0.74,0.78c-0.27-0.79-0.51-1.59-0.72-2.41c-0.21-0.81-0.39-1.64-0.54-2.48
					c-0.15-0.83-0.27-1.68-0.36-2.54c-0.09-0.85-0.16-1.71-0.19-2.58L84.4,174.26z"/>
			</g>
			<g>
				<path class="st5" d="M118.47,124.1l-0.27,1.09c-0.78,0.16-1.55,0.36-2.33,0.59c-0.77,0.23-1.53,0.49-2.29,0.79
					c-0.75,0.29-1.5,0.62-2.24,0.97c-0.74,0.35-1.47,0.73-2.19,1.14l-0.02-0.93c0.75-0.43,1.5-0.82,2.26-1.19
					c0.76-0.37,1.54-0.71,2.31-1.01c0.78-0.31,1.57-0.58,2.36-0.83C116.86,124.48,117.66,124.27,118.47,124.1z"/>
			</g>
			<g>
				<path class="st5" d="M120.66,123.73c0.59-0.07,1.18-0.13,1.77-0.16c0.6-0.03,1.19-0.04,1.78-0.03c0.6,0.01,1.2,0.05,1.79,0.11
					c0.6,0.06,1.2,0.15,1.79,0.26c0.2,0.04,0.39,0.08,0.58,0.12c0.19,0.04,0.39,0.09,0.58,0.13c0.19,0.05,0.38,0.1,0.57,0.15
					c0.19,0.05,0.38,0.11,0.56,0.17l-0.68,1.17c-0.18-0.06-0.36-0.11-0.54-0.16c-0.18-0.05-0.36-0.1-0.55-0.15
					c-0.18-0.05-0.37-0.09-0.55-0.13c-0.19-0.04-0.37-0.08-0.56-0.12c-0.57-0.11-1.15-0.2-1.73-0.27c-0.57-0.06-1.15-0.1-1.73-0.12
					c-0.57-0.02-1.15-0.01-1.72,0.01c-0.57,0.03-1.14,0.07-1.71,0.14L120.66,123.73z"/>
			</g>
			<g>
				<path class="st5" d="M92.26,193.49c0.15,0.14,0.31,0.29,0.47,0.42c0.16,0.14,0.32,0.27,0.48,0.41c0.16,0.13,0.33,0.26,0.49,0.39
					c0.17,0.13,0.33,0.25,0.5,0.37l-0.54,1.25c-0.17-0.13-0.35-0.26-0.52-0.39c-0.17-0.13-0.34-0.27-0.5-0.41
					c-0.17-0.14-0.33-0.28-0.49-0.43c-0.16-0.14-0.32-0.29-0.48-0.44c-0.59-0.56-1.14-1.15-1.66-1.76c-0.51-0.61-1-1.25-1.45-1.91
					c-0.45-0.66-0.86-1.33-1.24-2.04c-0.38-0.69-0.73-1.41-1.05-2.14l0.73-0.86c0.31,0.71,0.65,1.4,1.02,2.06
					c0.37,0.67,0.78,1.33,1.21,1.96c0.44,0.64,0.91,1.25,1.41,1.83C91.15,192.4,91.69,192.96,92.26,193.49z"/>
			</g>
			<g>
				<path class="st5" d="M95.49,197.53l0.49-1.31c0.69,0.39,1.4,0.73,2.14,1.03c0.74,0.3,1.5,0.55,2.27,0.76
					c0.78,0.21,1.58,0.37,2.4,0.48c0.82,0.11,1.66,0.18,2.51,0.2l-0.17,1.49c-0.88-0.02-1.75-0.1-2.61-0.23
					c-0.84-0.13-1.67-0.3-2.48-0.53c-0.8-0.22-1.59-0.49-2.35-0.81C96.94,198.3,96.21,197.94,95.49,197.53z"/>
			</g>
			<g>
				<path class="st5" d="M144.13,145.57c-0.15-1.08-0.35-2.12-0.6-3.14c-0.24-1.01-0.53-1.98-0.85-2.92
					c-0.32-0.93-0.69-1.83-1.09-2.69c-0.4-0.85-0.84-1.66-1.32-2.44l1.17-0.95c0.5,0.8,0.96,1.64,1.38,2.52
					c0.43,0.89,0.81,1.82,1.16,2.78c0.35,0.97,0.65,1.98,0.91,3.03c0.26,1.05,0.47,2.14,0.64,3.26L144.13,145.57z"/>
			</g>
			<g>
				<path class="st5" d="M107.73,198.61c0.91-0.08,1.83-0.21,2.75-0.4c0.94-0.19,1.88-0.43,2.82-0.72c0.95-0.3,1.91-0.65,2.87-1.05
					c0.97-0.41,1.93-0.87,2.89-1.39l0.38,1.45c-1,0.53-2.01,1.01-3.02,1.43c-1,0.41-1.99,0.77-2.99,1.07
					c-0.98,0.3-1.96,0.54-2.94,0.73c-0.96,0.18-1.92,0.31-2.86,0.39L107.73,198.61z"/>
			</g>
			<g>
				<path class="st5" d="M142.88,163.13c0.34-1.27,0.62-2.53,0.85-3.78c0.23-1.25,0.41-2.48,0.54-3.7c0.13-1.21,0.2-2.41,0.23-3.59
					c0.03-1.17,0.01-2.32-0.06-3.44l1.42-0.44c0.08,1.17,0.1,2.36,0.08,3.58c-0.02,1.23-0.1,2.47-0.23,3.74
					c-0.13,1.27-0.31,2.56-0.55,3.86c-0.24,1.31-0.53,2.62-0.88,3.95L142.88,163.13z"/>
			</g>
			<g>
				<path class="st5" d="M122.21,194.89l-0.49-1.41c0.95-0.61,1.89-1.28,2.82-2c0.94-0.72,1.86-1.5,2.76-2.32
					c0.91-0.83,1.8-1.71,2.67-2.64c0.87-0.93,1.73-1.91,2.55-2.94l0.97,1.03c-0.86,1.07-1.75,2.09-2.67,3.05
					c-0.91,0.96-1.84,1.88-2.79,2.74c-0.95,0.86-1.91,1.66-2.88,2.41C124.18,193.57,123.2,194.26,122.21,194.89z"/>
			</g>
			<g>
				<path class="st5" d="M138.67,174.07c0.32-0.62,0.62-1.24,0.91-1.87c0.29-0.62,0.57-1.25,0.83-1.88
					c0.26-0.63,0.52-1.26,0.76-1.88c0.24-0.63,0.46-1.26,0.68-1.89l1.37,0.31c-0.22,0.66-0.46,1.31-0.7,1.97
					c-0.25,0.66-0.51,1.31-0.79,1.96c-0.28,0.65-0.57,1.31-0.87,1.96c-0.3,0.65-0.62,1.3-0.95,1.95c-0.31,0.61-0.64,1.22-0.97,1.82
					c-0.33,0.6-0.67,1.18-1.02,1.76c-0.35,0.58-0.7,1.15-1.07,1.71c-0.36,0.56-0.74,1.11-1.11,1.65l-1.06-0.91
					c0.36-0.52,0.72-1.05,1.07-1.58c0.35-0.54,0.69-1.08,1.02-1.64c0.33-0.56,0.66-1.12,0.98-1.69
					C138.06,175.24,138.37,174.66,138.67,174.07z"/>
			</g>
		</g>
		<g>
			<path class="st5" d="M138.9,132.4c-0.52-0.67-1.07-1.3-1.65-1.9c-0.57-0.59-1.18-1.13-1.81-1.63c-0.63-0.5-1.28-0.95-1.96-1.37
				c-0.67-0.41-1.37-0.78-2.1-1.1l0.76-1.16c0.75,0.33,1.48,0.7,2.19,1.12c0.71,0.42,1.39,0.89,2.05,1.4
				c0.66,0.52,1.3,1.07,1.9,1.68c0.61,0.61,1.19,1.26,1.73,1.95L138.9,132.4z"/>
		</g>
	</g>
	<g class="st3">
		<g class="st4">
			<g>
				<path class="st5" d="M41.07,123.66l1.54,0.78c0.03,0.02,0.06,0.05,0.08,0.08c0.02,0.04,0.03,0.08,0.03,0.14
					c0,0.05-0.01,0.11-0.02,0.17c-0.02,0.06-0.04,0.12-0.07,0.19c-0.03,0.06-0.07,0.12-0.11,0.17c-0.04,0.05-0.08,0.09-0.13,0.12
					c-0.04,0.03-0.09,0.05-0.13,0.06c-0.04,0.01-0.08,0-0.11-0.01l-1.54-0.79L41.07,123.66z"/>
			</g>
			<g>
				<path class="st5" d="M39.06,123.2c0.12-0.23,0.25-0.43,0.4-0.61c0.14-0.17,0.3-0.32,0.45-0.43c0.16-0.11,0.31-0.18,0.46-0.21
					c0.15-0.03,0.29-0.02,0.41,0.04l2.46,1.21c0.13,0.06,0.23,0.17,0.29,0.31c0.07,0.14,0.1,0.32,0.11,0.51
					c0.01,0.2-0.02,0.41-0.08,0.64c-0.06,0.23-0.14,0.46-0.26,0.7c-0.12,0.23-0.26,0.45-0.41,0.62c-0.15,0.18-0.31,0.33-0.48,0.44
					c-0.16,0.11-0.33,0.18-0.48,0.21c-0.15,0.03-0.3,0.01-0.42-0.05l-2.42-1.28c-0.12-0.06-0.21-0.17-0.27-0.31
					c-0.06-0.14-0.09-0.31-0.1-0.5c0-0.19,0.02-0.4,0.08-0.62C38.86,123.65,38.95,123.43,39.06,123.2z M42.99,123.7l-2.45-1.22
					c-0.09-0.04-0.19-0.05-0.29-0.03c-0.1,0.02-0.22,0.07-0.33,0.15c-0.11,0.08-0.22,0.18-0.32,0.3c-0.1,0.12-0.2,0.27-0.28,0.43
					c-0.08,0.16-0.14,0.32-0.18,0.48c-0.04,0.16-0.06,0.3-0.06,0.44c0,0.13,0.02,0.26,0.07,0.35c0.04,0.1,0.11,0.17,0.19,0.22
					l2.43,1.27c0.09,0.05,0.19,0.06,0.3,0.04c0.11-0.02,0.22-0.07,0.34-0.15c0.11-0.08,0.23-0.18,0.34-0.31
					c0.11-0.13,0.21-0.28,0.29-0.44c0.08-0.17,0.15-0.33,0.19-0.49c0.04-0.16,0.06-0.31,0.05-0.45c0-0.14-0.03-0.26-0.08-0.36
					C43.15,123.82,43.08,123.74,42.99,123.7"/>
			</g>
			<g>
				<path class="st5" d="M32.88,160.21c0.18-0.1,0.34-0.14,0.5-0.13c0.15,0.01,0.29,0.06,0.41,0.17c0.12,0.1,0.21,0.25,0.28,0.43
					c0.07,0.18,0.1,0.41,0.1,0.66c0,0.12-0.01,0.25-0.03,0.38c-0.02,0.13-0.04,0.26-0.07,0.39c-0.03,0.13-0.07,0.26-0.12,0.38
					s-0.1,0.25-0.16,0.37c-0.06,0.12-0.13,0.23-0.2,0.34c-0.07,0.11-0.15,0.2-0.22,0.29c-0.08,0.09-0.16,0.17-0.24,0.24
					c-0.08,0.07-0.17,0.13-0.25,0.17l-3.45,1.86c-0.17,0.09-0.34,0.13-0.48,0.12c-0.15-0.01-0.28-0.08-0.39-0.18
					c-0.11-0.11-0.2-0.25-0.25-0.44c-0.06-0.18-0.09-0.4-0.08-0.65c0-0.13,0.01-0.25,0.03-0.38c0.02-0.13,0.05-0.25,0.08-0.38
					c0.03-0.13,0.07-0.25,0.12-0.37c0.05-0.12,0.1-0.24,0.16-0.35c0.06-0.11,0.12-0.22,0.19-0.32c0.07-0.1,0.14-0.2,0.21-0.28
					c0.07-0.09,0.15-0.16,0.23-0.23c0.08-0.07,0.16-0.13,0.25-0.17L32.88,160.21z M33.78,161.55c0-0.18-0.02-0.34-0.07-0.47
					c-0.05-0.13-0.11-0.23-0.19-0.3c-0.08-0.07-0.18-0.11-0.29-0.12c-0.11-0.01-0.23,0.02-0.35,0.09l-3.42,1.89
					c-0.06,0.03-0.12,0.07-0.18,0.12c-0.06,0.05-0.11,0.1-0.17,0.17c-0.05,0.06-0.1,0.13-0.15,0.2c-0.05,0.07-0.09,0.15-0.13,0.23
					c-0.04,0.08-0.08,0.16-0.11,0.25c-0.03,0.09-0.06,0.17-0.09,0.26c-0.02,0.09-0.04,0.18-0.06,0.27s-0.02,0.18-0.02,0.27
					c0,0.18,0.02,0.33,0.06,0.46c0.04,0.13,0.1,0.23,0.18,0.31c0.08,0.07,0.17,0.12,0.27,0.13c0.1,0.01,0.22-0.02,0.34-0.08
					l3.44-1.86c0.06-0.03,0.12-0.07,0.18-0.12c0.06-0.05,0.12-0.1,0.17-0.17c0.06-0.06,0.11-0.13,0.16-0.21
					c0.05-0.07,0.1-0.15,0.14-0.24c0.04-0.09,0.08-0.17,0.12-0.26c0.03-0.09,0.06-0.18,0.09-0.27c0.02-0.09,0.04-0.18,0.05-0.27
					C33.78,161.72,33.78,161.63,33.78,161.55"/>
			</g>
			<g>
				<path class="st5" d="M30.72,162.74l2.16-1.18c0.05-0.03,0.09-0.04,0.13-0.03c0.04,0,0.08,0.02,0.11,0.05
					c0.03,0.03,0.06,0.07,0.07,0.12c0.02,0.05,0.03,0.11,0.03,0.18c0,0.03,0,0.07-0.01,0.1c0,0.03-0.01,0.07-0.02,0.1
					s-0.02,0.07-0.03,0.1c-0.01,0.03-0.03,0.07-0.04,0.1c-0.02,0.03-0.03,0.06-0.05,0.09c-0.02,0.03-0.04,0.05-0.06,0.08
					c-0.02,0.02-0.04,0.05-0.06,0.06c-0.02,0.02-0.05,0.03-0.07,0.05l-2.17,1.18L30.72,162.74z"/>
			</g>
			<g>
				<path class="st5" d="M66.23,90.13c0.2-0.15,0.4-0.26,0.58-0.32c0.18-0.06,0.35-0.08,0.5-0.05c0.15,0.03,0.28,0.1,0.37,0.21
					c0.1,0.11,0.16,0.27,0.19,0.46l0.52,3.88c0.01,0.1,0.02,0.2,0.01,0.31c-0.01,0.11-0.02,0.22-0.05,0.33
					c-0.03,0.11-0.06,0.23-0.1,0.35c-0.04,0.12-0.1,0.24-0.16,0.36c-0.06,0.12-0.13,0.24-0.2,0.35c-0.07,0.11-0.15,0.22-0.24,0.32
					c-0.08,0.1-0.17,0.2-0.27,0.29c-0.09,0.09-0.19,0.17-0.29,0.24c-0.21,0.15-0.41,0.25-0.59,0.31c-0.19,0.05-0.36,0.06-0.51,0.03
					c-0.15-0.03-0.28-0.11-0.37-0.23c-0.1-0.12-0.16-0.28-0.18-0.48l-0.47-3.87c-0.01-0.1-0.01-0.2,0-0.31
					c0.01-0.11,0.03-0.22,0.05-0.33c0.03-0.11,0.06-0.22,0.1-0.34c0.04-0.11,0.09-0.23,0.15-0.34c0.06-0.11,0.12-0.22,0.19-0.33
					c0.07-0.11,0.15-0.21,0.23-0.31c0.08-0.1,0.17-0.2,0.26-0.29C66.03,90.29,66.13,90.2,66.23,90.13z M67.44,90.75
					c-0.02-0.14-0.06-0.25-0.13-0.33c-0.07-0.08-0.16-0.13-0.26-0.15c-0.11-0.02-0.23-0.01-0.36,0.04
					c-0.13,0.04-0.27,0.12-0.41,0.22c-0.07,0.05-0.14,0.11-0.2,0.18c-0.06,0.06-0.13,0.13-0.18,0.2c-0.06,0.07-0.11,0.15-0.16,0.22
					c-0.05,0.08-0.1,0.16-0.14,0.23c-0.04,0.08-0.08,0.16-0.11,0.24c-0.03,0.08-0.06,0.16-0.07,0.24c-0.02,0.08-0.03,0.16-0.04,0.23
					c-0.01,0.07,0,0.15,0,0.22l0.47,3.87c0.02,0.14,0.06,0.26,0.13,0.34c0.07,0.08,0.16,0.14,0.26,0.16
					c0.11,0.02,0.23,0.02,0.36-0.02c0.13-0.04,0.27-0.11,0.42-0.22c0.07-0.05,0.14-0.11,0.2-0.17c0.07-0.06,0.13-0.13,0.19-0.2
					c0.06-0.07,0.12-0.15,0.17-0.23c0.05-0.08,0.1-0.16,0.14-0.25s0.08-0.17,0.11-0.25s0.06-0.17,0.07-0.25
					c0.02-0.08,0.03-0.16,0.03-0.24c0-0.08,0-0.15-0.01-0.22L67.44,90.75"/>
			</g>
			<g>
				<path class="st5" d="M66.2,93.25l0.79-0.59l0.31,2.44c0,0.03,0,0.06,0,0.08c0,0.03-0.01,0.06-0.01,0.09
					c-0.01,0.03-0.02,0.06-0.03,0.09c-0.01,0.03-0.03,0.06-0.04,0.09c-0.02,0.03-0.03,0.06-0.05,0.09
					c-0.02,0.03-0.04,0.06-0.06,0.09c-0.02,0.03-0.05,0.05-0.07,0.08c-0.03,0.02-0.05,0.05-0.08,0.07
					c-0.05,0.04-0.11,0.07-0.16,0.08s-0.1,0.02-0.14,0.01c-0.04-0.01-0.07-0.03-0.1-0.06c-0.03-0.03-0.04-0.07-0.05-0.13L66.2,93.25
					z"/>
			</g>
			<g>
				<path class="st5" d="M102.2,78.85c0.15-0.29,0.34-0.56,0.55-0.81c0.22-0.24,0.46-0.46,0.71-0.64c0.25-0.18,0.52-0.32,0.78-0.41
					c0.26-0.09,0.52-0.14,0.77-0.12c0.24,0.02,0.45,0.09,0.6,0.22c0.16,0.12,0.27,0.29,0.33,0.5c0.06,0.21,0.08,0.45,0.04,0.71
					c-0.04,0.26-0.13,0.55-0.28,0.84l-2.96,5.81c-0.15,0.3-0.34,0.57-0.56,0.82c-0.22,0.25-0.46,0.46-0.72,0.63
					c-0.26,0.17-0.52,0.31-0.78,0.39c-0.26,0.08-0.52,0.11-0.75,0.08c-0.24-0.03-0.43-0.12-0.58-0.25
					c-0.15-0.13-0.25-0.31-0.31-0.52c-0.06-0.21-0.06-0.45-0.02-0.71c0.04-0.26,0.14-0.54,0.28-0.83L102.2,78.85z M105.18,79.09
					c0.11-0.21,0.17-0.41,0.2-0.6c0.03-0.19,0.02-0.36-0.02-0.5c-0.04-0.15-0.12-0.27-0.23-0.35c-0.11-0.09-0.25-0.14-0.42-0.15
					c-0.17-0.01-0.36,0.02-0.54,0.08c-0.19,0.06-0.38,0.16-0.56,0.29c-0.18,0.13-0.35,0.28-0.51,0.45
					c-0.15,0.17-0.29,0.37-0.39,0.57l-2.92,5.71c-0.1,0.21-0.17,0.41-0.2,0.59c-0.03,0.19-0.02,0.36,0.02,0.51
					c0.04,0.15,0.11,0.27,0.22,0.37c0.11,0.09,0.24,0.16,0.41,0.18c0.17,0.02,0.35,0,0.53-0.06c0.18-0.06,0.37-0.15,0.55-0.28
					c0.18-0.12,0.35-0.27,0.51-0.45c0.15-0.17,0.29-0.37,0.4-0.58L105.18,79.09"/>
			</g>
			<g>
				<path class="st5" d="M102.37,81.09l0.93,0.09l-1.84,3.61c-0.04,0.08-0.09,0.15-0.15,0.22c-0.06,0.07-0.12,0.12-0.19,0.17
					c-0.07,0.05-0.14,0.08-0.21,0.1c-0.07,0.02-0.14,0.03-0.2,0.02c-0.06-0.01-0.12-0.03-0.16-0.07c-0.04-0.04-0.07-0.08-0.08-0.14
					c-0.02-0.06-0.02-0.12-0.01-0.19c0.01-0.07,0.04-0.15,0.08-0.22L102.37,81.09z"/>
			</g>
			<g>
				<path class="st5" d="M43.06,194.65c0.15-0.29,0.32-0.53,0.51-0.72c0.19-0.19,0.39-0.32,0.59-0.4c0.2-0.08,0.41-0.1,0.6-0.06
					c0.2,0.04,0.38,0.15,0.54,0.32c0.16,0.17,0.29,0.4,0.38,0.66c0.09,0.26,0.14,0.55,0.15,0.86c0.01,0.31-0.02,0.63-0.09,0.96
					c-0.07,0.32-0.18,0.64-0.33,0.93l-2.97,5.81c-0.15,0.3-0.33,0.54-0.52,0.73c-0.19,0.19-0.39,0.32-0.59,0.39
					c-0.2,0.07-0.41,0.08-0.6,0.02c-0.19-0.06-0.37-0.17-0.53-0.36c-0.16-0.19-0.27-0.42-0.35-0.69c-0.08-0.27-0.12-0.57-0.13-0.88
					c0-0.31,0.03-0.63,0.1-0.95c0.07-0.32,0.18-0.63,0.33-0.92L43.06,194.65z M45.05,196.83c0.11-0.21,0.18-0.43,0.23-0.66
					c0.05-0.23,0.07-0.46,0.06-0.67c-0.01-0.22-0.04-0.43-0.1-0.61c-0.06-0.18-0.15-0.34-0.26-0.47c-0.11-0.12-0.25-0.2-0.38-0.23
					c-0.14-0.03-0.28-0.02-0.43,0.04c-0.14,0.05-0.29,0.15-0.42,0.28c-0.13,0.13-0.26,0.3-0.36,0.51l-2.92,5.71
					c-0.1,0.21-0.18,0.43-0.23,0.65c-0.05,0.23-0.07,0.46-0.07,0.68c0,0.22,0.03,0.43,0.09,0.62c0.06,0.19,0.14,0.36,0.25,0.49
					c0.11,0.13,0.24,0.22,0.37,0.25c0.14,0.04,0.28,0.03,0.42-0.02c0.14-0.05,0.29-0.14,0.42-0.27c0.13-0.13,0.26-0.3,0.36-0.51
					L45.05,196.83"/>
			</g>
			<g>
				<path class="st5" d="M43.91,195.58c0.04-0.08,0.09-0.14,0.14-0.19c0.05-0.05,0.1-0.09,0.16-0.11c0.05-0.02,0.11-0.03,0.16-0.01
					c0.05,0.01,0.1,0.04,0.14,0.09c0.04,0.05,0.08,0.11,0.1,0.18c0.02,0.07,0.04,0.15,0.04,0.23c0,0.08-0.01,0.17-0.02,0.25
					c-0.02,0.09-0.05,0.17-0.09,0.25l-1.85,3.61l-0.62-0.7L43.91,195.58z"/>
			</g>
			<g>
				<path class="st5" d="M129.12,108.96c0.02-0.04,0.05-0.09,0.08-0.13c0.03-0.04,0.06-0.08,0.1-0.12c0.04-0.04,0.08-0.07,0.12-0.11
					c0.04-0.03,0.09-0.06,0.14-0.09l4.57-2.51l0.45,1.19l-4.6,2.5c-0.1,0.05-0.2,0.09-0.29,0.1c-0.1,0.02-0.19,0.01-0.27,0
					c-0.08-0.02-0.16-0.05-0.22-0.11c-0.06-0.05-0.11-0.12-0.14-0.2c-0.01-0.04-0.02-0.08-0.03-0.13c0-0.04,0-0.09,0-0.13
					c0.01-0.04,0.02-0.09,0.03-0.14C129.08,109.05,129.09,109,129.12,108.96z"/>
			</g>
			<g>
				<path class="st5" d="M80.44,201.96c0.31-0.09,0.61-0.1,0.9-0.03c0.29,0.07,0.56,0.22,0.8,0.42c0.24,0.21,0.45,0.48,0.61,0.81
					c0.16,0.33,0.28,0.7,0.34,1.12l1.12,8.4c0.03,0.21,0.04,0.42,0.04,0.64c0,0.21-0.02,0.42-0.05,0.63
					c-0.03,0.21-0.08,0.41-0.14,0.6c-0.06,0.19-0.14,0.38-0.23,0.56c-0.09,0.18-0.19,0.34-0.31,0.49c-0.11,0.15-0.23,0.28-0.36,0.39
					c-0.13,0.11-0.27,0.21-0.41,0.29c-0.14,0.08-0.3,0.14-0.45,0.17c-0.32,0.08-0.64,0.06-0.94-0.03c-0.3-0.09-0.57-0.27-0.82-0.5
					c-0.24-0.23-0.45-0.53-0.61-0.88c-0.16-0.35-0.28-0.74-0.33-1.17l-1-8.28c-0.02-0.2-0.03-0.4-0.03-0.6
					c0.01-0.2,0.02-0.4,0.06-0.59c0.03-0.19,0.08-0.38,0.14-0.57c0.06-0.18,0.13-0.36,0.22-0.53c0.09-0.17,0.18-0.33,0.29-0.47
					c0.11-0.14,0.22-0.27,0.35-0.39c0.12-0.11,0.25-0.21,0.39-0.29C80.15,202.07,80.29,202.01,80.44,201.96z M82.42,204.48
					c-0.04-0.29-0.12-0.56-0.24-0.79c-0.11-0.23-0.26-0.42-0.43-0.57c-0.17-0.15-0.36-0.25-0.56-0.3c-0.2-0.05-0.42-0.05-0.64,0.02
					c-0.11,0.03-0.21,0.08-0.31,0.13c-0.1,0.06-0.19,0.13-0.28,0.21c-0.09,0.08-0.17,0.17-0.25,0.27c-0.08,0.1-0.15,0.21-0.21,0.33
					c-0.06,0.12-0.11,0.25-0.16,0.38c-0.04,0.13-0.08,0.27-0.1,0.4c-0.02,0.14-0.04,0.28-0.04,0.42c0,0.14,0,0.28,0.02,0.42
					l1.02,8.3c0.04,0.31,0.12,0.59,0.23,0.83c0.11,0.25,0.26,0.46,0.44,0.62c0.17,0.17,0.37,0.29,0.58,0.35
					c0.21,0.06,0.43,0.07,0.66,0.02c0.11-0.03,0.22-0.07,0.32-0.12c0.1-0.05,0.2-0.12,0.29-0.2c0.09-0.08,0.18-0.17,0.26-0.28
					c0.08-0.1,0.15-0.22,0.22-0.35c0.06-0.13,0.12-0.26,0.16-0.4c0.04-0.14,0.08-0.28,0.1-0.42c0.02-0.14,0.04-0.29,0.04-0.44
					c0-0.15-0.01-0.3-0.03-0.45L82.42,204.48"/>
			</g>
			<g>
				<path class="st5" d="M80.32,204.5c0.02-0.04,0.05-0.09,0.08-0.12c0.03-0.04,0.06-0.07,0.09-0.1c0.03-0.03,0.07-0.06,0.11-0.08
					c0.04-0.02,0.08-0.04,0.12-0.05c0.08-0.02,0.16-0.02,0.24,0c0.08,0.02,0.15,0.06,0.21,0.12c0.06,0.06,0.12,0.13,0.16,0.22
					c0.04,0.09,0.07,0.19,0.09,0.3l0.67,5.19l-1.23,0.33l-0.65-5.17c-0.01-0.06-0.01-0.11-0.01-0.16c0-0.05,0.01-0.11,0.02-0.16
					c0.01-0.05,0.02-0.1,0.04-0.15C80.28,204.59,80.3,204.55,80.32,204.5z"/>
			</g>
			<g>
				<path class="st5" d="M136.28,102.86c0.38-0.21,0.77-0.35,1.14-0.42c0.38-0.07,0.74-0.08,1.07-0.02
					c0.33,0.06,0.64,0.18,0.88,0.37c0.25,0.19,0.45,0.43,0.57,0.74c0.06,0.15,0.1,0.31,0.12,0.47c0.02,0.16,0.02,0.33,0.01,0.5
					c-0.02,0.17-0.05,0.35-0.11,0.53c-0.05,0.18-0.13,0.36-0.22,0.54c-0.09,0.18-0.2,0.35-0.32,0.52c-0.12,0.17-0.26,0.32-0.4,0.47
					c-0.15,0.15-0.31,0.29-0.48,0.41c-0.17,0.13-0.35,0.24-0.54,0.34l-7.46,4.01c-0.37,0.2-0.74,0.33-1.1,0.38
					c-0.36,0.06-0.7,0.05-1.01-0.02c-0.31-0.07-0.59-0.21-0.81-0.4c-0.23-0.19-0.4-0.44-0.51-0.74c-0.05-0.15-0.08-0.3-0.1-0.46
					c-0.02-0.16-0.01-0.32,0.01-0.49c0.02-0.17,0.06-0.34,0.11-0.51c0.05-0.17,0.12-0.34,0.21-0.51c0.09-0.17,0.19-0.34,0.3-0.49
					c0.11-0.16,0.24-0.31,0.38-0.45c0.14-0.14,0.29-0.27,0.44-0.39c0.16-0.12,0.33-0.23,0.5-0.33L136.28,102.86z M139.12,103.99
					c-0.09-0.22-0.23-0.39-0.4-0.52c-0.18-0.13-0.39-0.22-0.62-0.26c-0.23-0.04-0.49-0.04-0.76,0.01c-0.27,0.05-0.54,0.15-0.81,0.3
					l-7.32,4.04c-0.12,0.07-0.24,0.15-0.36,0.23c-0.11,0.09-0.22,0.18-0.32,0.28c-0.1,0.1-0.19,0.21-0.27,0.32s-0.15,0.23-0.21,0.35
					c-0.06,0.12-0.11,0.24-0.15,0.36c-0.04,0.12-0.06,0.24-0.08,0.36c-0.01,0.12-0.01,0.23,0,0.35c0.01,0.11,0.04,0.22,0.07,0.32
					c0.08,0.21,0.2,0.39,0.36,0.53c0.16,0.14,0.36,0.23,0.58,0.28c0.22,0.05,0.46,0.06,0.72,0.01c0.25-0.04,0.52-0.13,0.78-0.27
					l7.43-4.02c0.13-0.07,0.26-0.15,0.38-0.24c0.12-0.09,0.23-0.19,0.34-0.29c0.1-0.1,0.2-0.21,0.28-0.33
					c0.09-0.12,0.16-0.24,0.23-0.36c0.06-0.13,0.12-0.25,0.15-0.38c0.04-0.13,0.06-0.25,0.07-0.37c0.01-0.12,0.01-0.24-0.01-0.36
					C139.2,104.2,139.17,104.09,139.12,103.99"/>
			</g>
			<g>
				<path class="st5" d="M122.75,165.94c0.05-0.1,0.12-0.19,0.2-0.27c0.08-0.07,0.17-0.13,0.27-0.17c0.1-0.04,0.2-0.05,0.3-0.05
					c0.1,0,0.21,0.03,0.3,0.08l4.53,2.29l-0.8,1.56l-4.51-2.32c-0.1-0.05-0.18-0.12-0.24-0.2c-0.06-0.08-0.11-0.18-0.14-0.28
					c-0.03-0.1-0.04-0.21-0.02-0.32C122.67,166.15,122.7,166.04,122.75,165.94z"/>
			</g>
			<g>
				<path class="st5" d="M120.88,164.98c0.2-0.39,0.46-0.72,0.76-0.99c0.3-0.27,0.64-0.48,1.01-0.62c0.36-0.14,0.75-0.21,1.13-0.2
					c0.38,0.01,0.77,0.1,1.13,0.28l7.36,3.63c0.39,0.19,0.72,0.46,0.98,0.78c0.26,0.32,0.46,0.69,0.58,1.09
					c0.12,0.4,0.17,0.83,0.13,1.26c-0.04,0.43-0.16,0.86-0.37,1.28c-0.21,0.41-0.49,0.76-0.82,1.04c-0.33,0.28-0.7,0.49-1.09,0.63
					c-0.39,0.14-0.81,0.19-1.22,0.17c-0.41-0.03-0.82-0.14-1.2-0.34l-7.26-3.84c-0.35-0.19-0.65-0.45-0.88-0.75
					c-0.23-0.3-0.4-0.66-0.5-1.03c-0.1-0.38-0.13-0.78-0.09-1.18C120.56,165.77,120.68,165.37,120.88,164.98z M131.82,167.94
					l-7.35-3.66c-0.25-0.13-0.52-0.19-0.8-0.2c-0.27-0.01-0.54,0.04-0.8,0.14c-0.26,0.1-0.5,0.25-0.71,0.44
					c-0.21,0.19-0.4,0.43-0.54,0.7c-0.14,0.27-0.22,0.56-0.25,0.85c-0.03,0.29-0.01,0.57,0.06,0.84c0.07,0.27,0.19,0.51,0.36,0.73
					c0.17,0.22,0.38,0.4,0.63,0.53l7.27,3.81c0.27,0.14,0.56,0.22,0.85,0.24c0.29,0.02,0.58-0.02,0.86-0.12
					c0.28-0.1,0.54-0.25,0.77-0.45c0.23-0.2,0.43-0.45,0.58-0.74s0.23-0.6,0.26-0.9c0.03-0.3-0.01-0.6-0.09-0.89
					c-0.08-0.28-0.22-0.54-0.41-0.77C132.33,168.27,132.1,168.08,131.82,167.94"/>
			</g>
		</g>
	</g>
</g>
</svg>
